<?xml version="1.0" standalone="no"?>
<!DOCTYPE svg PUBLIC "-//W3C//DTD SVG 20010904//EN"
 "http://www.w3.org/TR/2001/REC-SVG-20010904/DTD/svg10.dtd">
<svg version="1.0" xmlns="http://www.w3.org/2000/svg"
 width="1241.000000pt" height="1241.000000pt" viewBox="0 0 1241.000000 1241.000000"
 preserveAspectRatio="xMidYMid meet">
<metadata>
Created by potrace 1.14, written by Peter Selinger 2001-2017
</metadata>
<g transform="translate(0.000000,1241.000000) scale(0.100000,-0.100000)"
fill="#000000" stroke="none">
<path d="M6852 11429 c2 -7 -2 -13 -9 -14 -7 0 -19 -9 -28 -20 -9 -12 -13 -14
-10 -5 4 11 -1 16 -15 16 -11 0 -20 -7 -20 -16 0 -13 -2 -13 -10 0 -6 9 -5 20
3 30 11 13 10 13 -5 1 -10 -7 -15 -18 -11 -23 3 -6 0 -8 -8 -6 -8 3 -13 12
-11 19 1 8 -7 3 -18 -10 -11 -13 -20 -20 -20 -16 0 5 -10 0 -22 -11 -13 -10
-17 -12 -10 -4 16 19 16 35 -1 21 -14 -11 -27 -5 -27 11 0 5 5 6 12 2 7 -4 8
-3 4 5 -12 19 -27 2 -20 -24 3 -12 1 -26 -5 -29 -6 -4 -9 -1 -5 7 3 8 0 18 -5
22 -6 3 -8 11 -5 17 4 7 2 8 -4 4 -6 -4 -8 -14 -5 -22 5 -13 3 -14 -13 -6 -10
5 -23 12 -29 14 -5 1 -9 7 -7 11 1 5 -2 6 -8 2 -8 -5 -7 -11 1 -21 6 -8 9 -18
5 -22 -4 -4 -12 1 -17 11 -6 9 -15 15 -20 11 -7 -4 -7 -10 0 -18 7 -8 5 -12
-8 -12 -10 0 -17 5 -14 11 2 7 -3 12 -11 12 -8 0 -12 -6 -9 -14 4 -9 0 -11
-11 -7 -9 3 -13 11 -9 17 3 6 1 7 -5 3 -9 -5 -9 -13 -2 -26 19 -35 9 -35 -11
0 l-19 35 4 -33 c3 -19 2 -31 -2 -27 -4 4 -7 12 -7 18 0 16 -56 11 -67 -5 -6
-10 -8 -10 -8 0 0 6 -5 12 -11 12 -6 0 -8 -7 -5 -16 3 -8 2 -12 -4 -9 -6 3
-13 -1 -16 -10 -6 -14 -8 -14 -21 2 -8 10 -12 13 -9 6 4 -6 1 -15 -5 -19 -8
-4 -9 -3 -5 4 8 13 -6 16 -18 5 -4 -5 -17 -8 -29 -8 -13 -1 -21 -6 -19 -14 1
-7 -2 -10 -7 -6 -6 3 -8 12 -4 20 4 11 0 14 -13 9 -11 -4 -25 -12 -33 -18 -12
-9 -13 -8 -6 4 4 8 5 12 0 8 -4 -4 -15 -2 -23 5 -11 9 -11 5 2 -15 10 -15 23
-25 29 -21 6 3 7 1 3 -6 -8 -12 -30 -1 -48 24 -5 6 -8 5 -8 -2 0 -7 -8 -13
-17 -13 -15 0 -16 2 -3 10 8 5 10 10 4 10 -5 0 -19 -6 -30 -14 -14 -11 -22
-12 -34 -3 -9 7 -9 4 2 -9 17 -20 17 -20 -17 -18 -20 2 -39 5 -44 8 -4 3 -8
-1 -8 -9 0 -8 4 -12 9 -9 4 3 16 0 25 -6 15 -9 14 -10 -6 -4 -18 5 -22 3 -16
-7 3 -8 -5 -1 -19 14 -25 27 -26 27 -23 5 1 -15 -3 -22 -12 -20 -9 2 -11 -3
-7 -15 4 -13 1 -11 -12 5 -14 18 -20 20 -30 10 -9 -9 -12 -9 -12 0 0 7 -5 12
-11 12 -8 0 -7 -5 1 -15 7 -9 10 -19 6 -23 -4 -4 -12 1 -17 11 -6 9 -15 17
-22 17 -8 0 -8 -3 2 -9 10 -7 11 -13 2 -30 -13 -24 -23 -28 -15 -6 4 8 1 15
-6 15 -6 0 -8 5 -4 12 4 7 3 8 -5 4 -6 -4 -9 -11 -6 -16 3 -4 -3 -14 -12 -21
-12 -10 -14 -10 -9 -1 4 6 3 12 -3 12 -5 0 -18 3 -28 6 -16 6 -16 5 -3 -7 8
-8 13 -13 11 -12 -2 2 -10 -2 -17 -8 -8 -7 -14 -6 -20 2 -5 8 -3 9 6 4 9 -6
11 -4 5 4 -5 9 -11 9 -17 3 -6 -6 -18 -8 -27 -5 -13 4 -14 3 -1 -5 8 -6 18 -8
22 -6 4 3 8 1 8 -4 0 -6 -15 -9 -34 -7 -29 3 -34 1 -29 -13 5 -14 3 -15 -8 -4
-16 15 -29 16 -29 1 0 -5 5 -7 10 -4 6 3 10 2 10 -3 0 -5 -11 -9 -24 -9 -14 0
-23 5 -22 11 2 6 1 8 -1 3 -3 -4 -8 -5 -13 -2 -4 3 -6 -4 -3 -15 3 -12 0 -20
-6 -20 -7 0 -10 4 -6 9 3 5 0 13 -6 17 -8 5 -9 3 -4 -6 6 -10 4 -12 -7 -7 -9
3 -20 1 -26 -5 -8 -8 -16 -7 -29 3 -12 9 -10 3 7 -21 l24 -35 -28 25 c-18 16
-25 19 -21 8 4 -9 1 -19 -6 -24 -8 -4 -10 -3 -5 4 5 8 2 10 -8 6 -9 -3 -14
-11 -13 -16 1 -6 -4 -13 -10 -15 -7 -3 -13 0 -13 7 0 6 4 8 10 5 6 -4 7 1 3
11 -4 11 -8 13 -11 6 -2 -7 -8 -10 -12 -7 -5 3 -7 -4 -5 -15 3 -17 1 -19 -16
-10 -11 6 -17 15 -14 20 3 5 1 11 -4 14 -14 9 -7 -19 9 -40 8 -10 10 -15 3
-11 -6 4 -14 3 -18 -3 -4 -6 -11 -8 -16 -5 -5 4 -9 1 -9 -5 0 -6 -5 -8 -11 -4
-8 4 -7 9 2 15 7 4 10 11 5 16 -4 4 -12 0 -18 -10 -7 -14 -13 -15 -23 -7 -10
8 -12 4 -10 -20 1 -17 -2 -33 -8 -37 -5 -3 -7 -1 -4 4 4 6 -4 11 -18 11 -15 0
-27 -8 -30 -18 -3 -10 -13 -24 -23 -32 -15 -12 -16 -11 -4 4 9 11 10 18 2 23
-6 3 -7 11 -4 17 4 7 2 8 -4 4 -6 -4 -9 -13 -5 -21 4 -11 0 -14 -13 -9 -14 4
-16 3 -5 -4 17 -12 6 -33 -14 -26 -8 4 -12 11 -8 17 3 6 1 7 -6 3 -9 -6 -9
-11 1 -24 8 -10 9 -13 1 -9 -6 4 -19 0 -27 -9 -9 -8 -16 -12 -16 -7 0 5 5 14
12 21 7 7 9 12 5 12 -5 0 -20 -12 -35 -27 -15 -15 -18 -20 -8 -12 11 8 17 9
13 2 -4 -6 -1 -13 5 -16 7 -3 -6 -3 -30 -2 -24 2 -40 -1 -36 -6 3 -5 9 -7 14
-4 5 3 12 0 16 -6 4 -7 3 -9 -4 -5 -6 3 -14 1 -18 -5 -5 -9 -11 -7 -21 6 -8
12 -13 14 -13 6 0 -7 -6 -11 -14 -8 -10 4 -13 1 -9 -9 4 -12 8 -12 22 -2 14
11 14 11 4 -3 -7 -9 -12 -18 -10 -20 1 -2 -2 -1 -7 3 -5 3 -15 4 -22 1 -10 -4
-12 0 -7 13 3 11 -6 4 -21 -14 -15 -17 -32 -29 -38 -26 -5 4 -5 -4 2 -16 7
-12 8 -20 2 -16 -5 3 -15 -1 -22 -9 -9 -11 -17 -12 -31 -5 -15 8 -17 7 -13 -5
4 -8 9 -15 13 -15 4 0 8 -7 8 -16 0 -12 -6 -9 -20 10 -19 27 -41 27 -30 0 5
-13 7 -13 14 -2 5 7 9 8 9 2 0 -6 -9 -19 -20 -29 -11 -10 -17 -21 -15 -26 3
-4 1 -10 -4 -14 -6 -3 -8 3 -6 14 2 12 -3 21 -16 24 -16 4 -17 2 -8 -14 5 -11
6 -19 2 -18 -22 4 -25 -3 -7 -17 19 -15 19 -15 -2 -5 -23 11 -49 9 -61 -4 -4
-4 -2 -5 5 -1 7 4 12 2 12 -7 0 -9 -9 -13 -23 -12 -26 3 -32 -19 -13 -45 6 -8
0 -6 -13 5 -14 11 -21 14 -17 8 4 -7 2 -13 -3 -13 -6 0 -11 -4 -11 -10 0 -5 8
-7 18 -4 14 5 14 4 2 -4 -8 -6 -18 -8 -22 -6 -7 5 -12 -11 -9 -29 1 -5 -3 -6
-9 -2 -5 3 -10 1 -10 -5 0 -8 -6 -8 -20 0 -16 9 -19 8 -13 -6 5 -13 3 -15 -8
-9 -12 7 -12 6 -1 -7 10 -13 10 -18 1 -24 -8 -4 -9 -3 -5 4 4 7 2 12 -3 12 -6
0 -11 -11 -11 -25 0 -14 -5 -25 -11 -25 -5 0 -7 6 -3 13 5 7 1 7 -12 -3 -29
-22 -30 -24 -13 -18 9 4 16 1 16 -8 0 -7 -4 -11 -9 -8 -4 3 -18 -2 -30 -10
-12 -9 -18 -16 -12 -16 5 0 15 5 21 11 8 8 13 8 18 0 4 -7 1 -10 -7 -9 -7 2
-12 -2 -11 -8 1 -7 -6 -10 -16 -7 -10 3 -22 -1 -26 -8 -5 -8 -4 -10 3 -5 7 4
12 3 12 -2 0 -17 -13 -22 -29 -10 -13 10 -14 10 -3 -2 19 -22 14 -35 -6 -17
-15 14 -19 15 -19 2 0 -8 4 -12 8 -9 4 2 7 -5 6 -16 -1 -15 -6 -18 -20 -14
-12 4 -17 2 -13 -4 4 -6 -2 -16 -11 -22 -14 -9 -14 -10 -2 -7 9 3 22 1 30 -4
12 -8 12 -9 -1 -7 -23 3 -61 -12 -55 -23 4 -5 2 -9 -3 -9 -10 0 -9 -30 2 -48
4 -7 4 -12 -1 -11 -20 3 -27 -2 -13 -11 12 -7 10 -9 -7 -7 -17 1 -19 4 -11 14
14 18 0 17 -18 -1 -12 -13 -11 -16 7 -21 19 -6 20 -7 2 -20 -10 -7 -20 -11
-23 -9 -2 3 2 9 10 14 9 6 10 10 3 10 -22 0 -26 -23 -7 -38 17 -13 17 -14 1
-9 -14 5 -16 2 -13 -16 3 -17 -1 -23 -16 -24 -20 -2 -20 -1 -2 12 11 8 14 15
8 15 -20 0 -35 -25 -22 -38 16 -16 -4 -15 -22 1 -8 6 -6 1 5 -12 11 -14 14
-21 6 -16 -11 6 -13 4 -8 -8 7 -19 -4 -22 -20 -6 -8 8 -13 7 -18 -2 -5 -7 -4
-10 3 -5 6 3 13 2 17 -3 3 -5 -3 -15 -12 -21 -17 -11 -17 -11 0 -6 9 3 25 9
35 12 12 4 12 2 -3 -7 -30 -18 -31 -19 -16 -28 10 -7 9 -9 -3 -14 -8 -3 -18
-1 -22 5 -5 7 -2 8 6 3 8 -5 11 -4 6 3 -4 6 -14 8 -23 5 -11 -4 -13 -8 -5 -11
7 -2 12 -8 12 -13 0 -6 -5 -7 -12 -3 -7 4 -8 3 -4 -4 4 -6 12 -10 19 -8 7 1 9
1 4 -1 -4 -3 -4 -9 -1 -15 4 -6 -2 -6 -14 1 -18 10 -20 9 -17 -9 2 -11 6 -24
9 -29 3 -5 -2 -15 -11 -22 -14 -12 -16 -12 -8 0 6 10 4 12 -4 6 -9 -5 -10 -10
-2 -18 14 -14 14 -27 0 -27 -5 0 -7 5 -4 10 3 6 1 10 -6 10 -6 0 -9 -8 -7 -18
3 -11 -2 -23 -13 -30 -10 -7 -16 -18 -13 -26 3 -8 1 -17 -5 -20 -16 -10 -1
-35 17 -30 14 5 14 4 -1 -6 -9 -6 -14 -16 -11 -22 5 -7 2 -8 -6 -3 -10 6 -12
3 -8 -13 4 -15 2 -19 -8 -15 -8 3 -11 10 -7 16 3 6 1 7 -6 3 -6 -4 -9 -11 -6
-16 3 -4 2 -10 -2 -13 -5 -2 -2 -2 5 0 7 1 10 -2 7 -7 -3 -6 0 -10 7 -10 8 0
6 -5 -5 -11 -15 -9 -16 -13 -6 -27 11 -14 11 -15 -1 -4 -8 6 -17 12 -21 12
-13 0 -18 -29 -7 -36 7 -5 8 -2 3 6 -6 9 -4 11 4 5 9 -5 10 -10 2 -18 -7 -7
-15 -6 -25 2 -12 10 -14 9 -12 -6 2 -11 10 -17 22 -15 12 2 15 0 8 -5 -6 -4
-10 -15 -9 -24 2 -11 -3 -15 -15 -12 -22 6 -32 -8 -18 -27 8 -12 9 -12 4 3 -3
9 -1 17 5 17 6 0 9 -8 7 -17 -2 -10 -11 -18 -20 -18 -9 0 -20 -4 -25 -8 -4 -5
-3 -8 2 -7 21 5 36 0 30 -10 -4 -6 -10 -8 -15 -5 -4 3 -14 -3 -21 -13 -12 -15
-12 -16 1 -5 13 10 18 8 29 -9 7 -11 9 -18 4 -15 -4 3 -13 -1 -20 -8 -10 -11
-10 -14 0 -18 9 -3 9 -8 -2 -18 -8 -8 -11 -9 -8 -3 3 6 0 11 -8 11 -13 0 -13
-4 1 -25 9 -13 11 -21 5 -18 -6 4 -11 2 -11 -4 0 -6 -5 -8 -12 -4 -7 4 -8 3
-4 -5 4 -6 11 -9 16 -6 5 3 12 0 16 -7 4 -7 4 -10 -1 -6 -4 4 -14 3 -22 -3
-10 -9 -13 -8 -13 0 0 7 -5 9 -11 5 -16 -9 9 -24 30 -17 12 3 11 1 -3 -11 -10
-8 -22 -13 -27 -11 -4 3 -11 0 -15 -6 -5 -8 -3 -9 6 -4 10 6 12 4 7 -8 -4 -12
-2 -15 11 -11 11 4 8 -2 -8 -16 l-25 -21 25 6 c17 4 21 3 12 -3 -8 -5 -13 -12
-13 -16 1 -3 1 -7 0 -8 -7 -26 -11 -49 -11 -73 0 -16 -2 -23 -5 -15 -2 9 -14
22 -26 29 -15 9 -18 9 -10 1 6 -7 9 -19 6 -28 -4 -10 -2 -13 6 -8 7 5 10 2 9
-6 -2 -7 3 -12 10 -10 8 1 11 -2 7 -8 -3 -6 -11 -8 -16 -5 -9 6 -12 -3 -12
-37 0 -10 -5 -14 -14 -11 -12 5 -12 7 -1 14 9 6 9 9 1 9 -19 0 -24 -17 -8 -30
8 -7 15 -18 15 -24 0 -6 -5 -4 -10 4 -8 13 -10 13 -10 -2 0 -11 -5 -15 -15
-12 -18 7 -20 -11 -3 -22 7 -4 8 -3 4 4 -5 8 -1 10 10 5 12 -4 14 -8 6 -11
-10 -3 -10 -7 0 -20 11 -13 11 -14 -2 -7 -8 5 -22 10 -30 12 -13 1 -13 0 0
-10 8 -7 22 -21 30 -32 14 -17 12 -17 -16 2 l-31 22 1 -24 c1 -13 5 -27 9 -31
3 -4 4 3 2 15 -2 12 0 19 6 16 5 -4 7 -11 4 -16 -4 -5 0 -9 7 -9 8 0 7 -4 -4
-10 -10 -6 -15 -19 -13 -30 2 -12 0 -18 -6 -15 -5 4 -7 11 -4 16 4 5 1 9 -4 9
-14 0 -14 -6 0 -32 9 -16 8 -19 -2 -13 -9 6 -10 3 -5 -10 5 -14 4 -16 -7 -6
-11 9 -17 7 -28 -6 -12 -16 -12 -17 2 -5 14 11 17 9 17 -12 0 -18 -5 -23 -17
-19 -11 4 -10 1 4 -10 17 -13 18 -18 6 -29 -8 -8 -11 -8 -7 -1 3 6 1 15 -5 18
-19 13 -21 -3 -2 -31 17 -26 17 -28 0 -21 -9 3 -17 2 -17 -4 0 -6 -5 -7 -12
-3 -7 4 -8 3 -4 -4 4 -6 14 -8 24 -5 15 6 15 5 3 -10 -7 -9 -18 -14 -24 -10
-6 3 -7 1 -3 -5 4 -6 12 -10 19 -8 7 1 9 1 4 -1 -4 -3 -4 -9 -1 -15 4 -6 -1
-6 -14 1 -17 9 -20 8 -17 -7 1 -9 -7 -27 -18 -39 -11 -13 -18 -23 -14 -23 13
0 46 44 40 54 -3 6 0 5 8 -2 11 -10 11 -14 1 -21 -7 -4 -14 -17 -15 -29 0 -11
-5 -18 -9 -16 -4 3 -16 0 -25 -5 -15 -8 -15 -11 -3 -12 8 -1 22 0 30 1 11 1
12 -1 4 -10 -6 -6 -20 -12 -31 -13 -11 0 -20 -7 -20 -14 0 -6 5 -9 11 -5 17
10 37 11 30 1 -3 -5 -10 -7 -15 -4 -12 8 -11 -1 2 -28 10 -21 10 -21 -5 -3 -9
11 -16 14 -16 7 0 -7 -4 -9 -10 -6 -6 3 -7 -1 -4 -9 3 -9 11 -13 17 -9 6 4 7
1 3 -6 -5 -7 -14 -10 -22 -7 -8 3 -13 0 -11 -7 1 -7 -4 -11 -11 -9 -9 2 -11
-2 -6 -10 15 -24 14 -48 -3 -67 -9 -11 -21 -17 -26 -14 -4 3 -3 -4 4 -15 7
-12 16 -19 20 -16 4 2 11 -1 15 -7 4 -7 3 -9 -4 -5 -6 3 -13 2 -17 -3 -3 -6
-12 -8 -19 -5 -8 3 -17 0 -22 -7 -4 -7 -3 -10 4 -6 13 9 42 -2 42 -15 0 -7 -5
-6 -13 1 -8 6 -17 8 -20 4 -10 -9 -9 -25 1 -19 5 3 9 -1 9 -8 0 -8 -6 -12 -12
-10 -7 3 -20 -7 -30 -22 -9 -14 -13 -24 -7 -20 5 3 13 -1 16 -10 4 -10 2 -13
-6 -8 -8 5 -9 2 -5 -9 3 -9 3 -16 -1 -16 -21 3 -23 -4 -6 -28 16 -26 16 -27 0
-14 -16 13 -17 13 -15 0 1 -7 -1 -22 -5 -31 -6 -14 -12 -15 -26 -8 -16 9 -18
7 -14 -10 2 -11 6 -29 8 -40 3 -12 1 -18 -5 -15 -5 4 -12 -1 -15 -9 -3 -9 -11
-13 -16 -10 -6 4 -5 -3 1 -15 13 -24 9 -27 -12 -7 -12 12 -14 8 -12 -30 1 -24
-2 -47 -8 -51 -6 -3 -7 -1 -3 5 4 7 2 12 -4 12 -6 0 -8 5 -4 12 5 7 3 8 -5 4
-7 -5 -10 -11 -7 -14 3 -3 1 -11 -5 -18 -7 -9 -7 -19 1 -33 13 -25 7 -27 -14
-6 -13 14 -15 13 -13 -4 0 -11 4 -18 7 -16 4 2 7 -2 7 -10 0 -10 -5 -11 -18
-4 -11 6 -20 5 -24 -1 -6 -10 -5 -11 17 -14 6 0 12 -9 14 -19 2 -14 -1 -15
-10 -8 -13 11 -26 5 -26 -11 0 -5 5 -6 12 -2 7 4 8 3 4 -4 -4 -7 -15 -12 -25
-12 -10 0 -23 -11 -29 -25 -14 -30 -16 -46 -3 -26 6 9 11 10 15 2 7 -10 2 -12
-31 -15 -7 -1 -13 -5 -13 -9 0 -29 1 -31 10 -17 5 8 10 11 10 6 0 -5 6 -5 13
0 7 5 4 1 -6 -9 -14 -13 -23 -14 -32 -7 -10 8 -15 8 -21 -1 -4 -7 -3 -9 2 -6
6 3 16 -3 22 -14 12 -19 11 -19 -10 -8 l-23 12 20 -23 20 -23 -22 12 c-29 15
-34 14 -27 -4 4 -8 11 -12 17 -8 6 3 7 1 3 -5 -4 -7 -14 -12 -22 -12 -8 0 -12
4 -9 10 4 6 -1 7 -11 3 -11 -4 -13 -8 -6 -11 7 -2 12 -10 12 -18 0 -18 -38
-56 -50 -49 -5 3 -12 0 -16 -6 -4 -7 -3 -10 2 -7 5 3 16 -1 23 -10 13 -14 13
-15 -6 -10 -11 3 -27 1 -34 -4 -11 -8 -10 -9 3 -4 10 3 20 1 23 -4 4 -6 -3
-10 -13 -10 -24 0 -40 -19 -37 -42 2 -10 -3 -18 -11 -18 -8 0 -11 -7 -8 -17 5
-15 3 -15 -12 2 l-17 20 8 -20 c4 -11 9 -26 12 -32 3 -7 0 -13 -6 -13 -6 0
-10 3 -8 8 1 4 -1 8 -6 10 -16 5 -19 1 -7 -13 7 -8 9 -15 5 -15 -4 0 -4 -6 1
-13 5 -7 1 -4 -10 8 l-19 20 7 -22 c5 -16 2 -23 -12 -27 -22 -7 -25 -36 -4
-36 9 0 13 -3 9 -6 -10 -10 -48 7 -41 18 5 7 2 8 -5 4 -9 -6 -9 -12 3 -25 19
-20 20 -31 5 -31 -5 0 -7 5 -4 10 3 6 -1 10 -10 10 -9 0 -13 -4 -10 -10 3 -5
2 -10 -3 -10 -6 0 -8 -10 -5 -22 3 -16 2 -19 -5 -10 -7 10 -12 9 -23 -4 -9
-12 -10 -15 -1 -10 6 4 12 3 12 -2 0 -6 -11 -13 -25 -16 -21 -5 -24 -10 -15
-26 14 -26 13 -37 -2 -17 -9 12 -17 14 -28 7 -8 -5 -10 -10 -5 -10 6 0 -1 -7
-15 -15 -14 -8 -19 -14 -12 -15 6 0 12 -4 12 -10 0 -5 -8 -6 -17 -3 -17 7 -17
6 0 -11 23 -24 21 -29 -5 -15 -20 11 -22 11 -10 -3 9 -11 10 -18 2 -23 -6 -3
-7 -11 -4 -17 4 -7 2 -8 -5 -4 -6 4 -9 11 -7 15 3 4 1 13 -5 21 -6 11 -8 6 -5
-17 2 -20 -1 -30 -8 -27 -6 2 -17 0 -25 -5 -11 -7 -12 -13 -3 -24 9 -11 8 -14
-3 -14 -8 0 -15 7 -16 16 0 10 -4 7 -10 -7 -5 -13 -13 -20 -19 -17 -5 3 -10 2
-10 -4 0 -5 9 -9 19 -8 11 0 17 5 14 11 -4 5 -1 6 6 2 13 -9 6 -21 -12 -21 -5
0 -12 -6 -15 -13 -2 -8 3 -10 15 -6 14 5 15 4 4 -4 -16 -12 -44 -4 -35 9 3 5
3 9 0 9 -6 0 -37 -56 -36 -65 1 -19 -2 -24 -17 -29 -15 -6 -15 -4 2 14 10 11
14 20 9 20 -5 0 -15 -9 -22 -21 -10 -16 -11 -24 -1 -35 10 -12 10 -15 -2 -12
-8 2 -13 -3 -11 -12 3 -12 0 -11 -15 2 -13 12 -23 14 -33 8 -8 -5 -10 -10 -5
-10 6 0 10 -11 10 -24 0 -14 -5 -22 -12 -19 -6 3 -9 12 -7 21 5 14 4 14 -6 -1
-6 -10 -16 -14 -23 -10 -7 4 -6 0 2 -10 15 -19 26 -23 15 -5 -5 7 -3 8 5 4 15
-10 7 -19 -20 -23 -13 -2 -18 1 -13 9 4 7 3 8 -4 4 -6 -4 -9 -12 -6 -19 2 -7
-3 -21 -11 -32 -16 -19 -16 -19 -6 2 8 16 8 24 -1 29 -6 4 -8 3 -4 -4 8 -14
-22 -44 -36 -36 -7 4 -8 2 -4 -5 4 -6 11 -9 16 -6 12 7 6 -16 -10 -41 l-13
-22 -19 22 c-10 11 -18 17 -17 11 4 -30 -1 -37 -16 -25 -10 9 -15 9 -15 1 0
-6 5 -11 11 -11 5 0 7 -6 3 -12 -6 -10 -4 -10 7 0 7 6 18 12 23 12 6 0 0 -7
-12 -16 -13 -9 -29 -14 -35 -11 -7 3 -21 -1 -32 -9 -10 -8 -13 -14 -6 -14 7 0
9 -5 5 -12 -4 -7 -3 -8 5 -4 6 4 9 11 7 15 -3 4 5 8 17 8 20 2 20 1 4 -8 -9
-6 -15 -15 -11 -20 3 -5 2 -9 -3 -8 -27 5 -33 -2 -23 -23 10 -21 10 -22 -4 -5
-8 11 -13 24 -12 30 2 7 1 9 -1 5 -3 -5 -9 -8 -14 -8 -6 0 -7 5 -3 12 5 7 3 8
-5 4 -9 -6 -8 -13 6 -28 18 -21 18 -21 -6 -8 -15 8 -21 8 -17 1 4 -6 1 -14 -8
-17 -8 -3 -12 -12 -9 -20 4 -10 0 -12 -11 -8 -9 3 -13 11 -9 17 3 6 1 7 -6 3
-6 -4 -9 -11 -6 -16 3 -5 -4 -14 -15 -20 -16 -9 -19 -15 -11 -24 16 -19 -11
-38 -45 -34 -21 2 -28 -2 -30 -17 -2 -10 2 -25 7 -31 7 -8 6 -15 -2 -20 -7 -4
-9 -3 -6 3 4 6 0 16 -8 23 -13 10 -15 9 -15 -9 0 -24 -18 -28 -27 -5 -5 12 -9
10 -23 -11 -10 -15 -21 -27 -26 -27 -5 0 -8 -4 -6 -9 2 -8 -12 -13 -30 -10 -4
0 -5 -5 -2 -12 2 -7 -3 -21 -11 -32 -15 -19 -15 -19 -4 5 11 22 10 23 -3 13
-8 -7 -19 -9 -23 -5 -5 4 -5 -1 -2 -10 4 -12 -1 -22 -16 -29 -21 -12 -21 -11
-8 7 14 18 14 18 -3 3 -15 -14 -16 -21 -6 -40 10 -21 10 -22 -3 -6 -16 19 -42
23 -52 7 -4 -6 -10 -8 -15 -5 -5 3 -12 0 -16 -6 -4 -7 -3 -9 3 -6 6 4 10 -6 9
-23 -1 -37 -4 -37 -17 -2 -10 25 -12 26 -23 10 -7 -10 -15 -17 -17 -15 -2 1 1
-3 8 -9 9 -8 4 -15 -22 -27 -23 -11 -33 -12 -31 -4 1 7 1 9 -1 4 -3 -4 -9 -4
-15 -1 -6 4 -5 -2 1 -15 10 -18 9 -20 -5 -14 -13 5 -15 3 -9 -7 5 -8 4 -11 -3
-6 -6 3 -15 -2 -21 -11 -6 -10 -11 -14 -11 -9 0 5 -7 3 -15 -4 -8 -7 -15 -9
-15 -4 0 5 -4 3 -9 -5 -5 -8 -17 -16 -25 -17 -9 -1 -14 1 -11 5 2 4 -2 8 -10
8 -11 0 -12 -5 -3 -20 7 -14 7 -17 -1 -13 -5 4 -15 -3 -21 -14 -9 -17 -14 -18
-31 -9 -16 8 -24 8 -33 -2 -7 -7 -7 -10 0 -6 6 3 11 0 11 -8 0 -10 -5 -11 -18
-4 -23 12 -32 12 -24 -2 4 -6 -2 -19 -14 -30 -12 -11 -21 -16 -21 -10 0 18
-26 19 -27 0 -1 -11 2 -17 8 -14 5 4 9 1 9 -4 0 -6 -7 -11 -15 -11 -8 0 -15 4
-15 8 0 5 -7 9 -15 9 -8 0 -11 -5 -8 -10 4 -6 0 -8 -9 -4 -13 4 -15 -1 -14
-24 1 -17 -2 -33 -7 -36 -6 -3 -7 -1 -3 5 4 7 2 12 -4 12 -6 0 -9 4 -6 9 7 11
-21 8 -31 -4 -4 -4 -3 -5 3 -2 7 4 14 0 17 -8 5 -11 1 -12 -18 -5 -19 7 -23 6
-18 -5 3 -8 10 -12 16 -8 5 3 7 1 4 -5 -4 -5 -18 -9 -32 -7 -26 2 -34 -10 -12
-18 7 -3 4 -6 -6 -6 -10 -1 -16 -5 -13 -10 7 -11 -20 -8 -31 3 -4 4 -2 6 6 4
7 -1 16 4 18 12 4 13 3 13 -6 0 -6 -8 -11 -11 -11 -6 0 5 -6 4 -13 -3 -10 -8
-17 -7 -27 2 -12 10 -12 9 -1 -5 7 -10 17 -15 22 -13 4 3 7 -4 6 -15 -1 -12
-5 -16 -10 -11 -12 12 -39 2 -31 -10 3 -5 10 -6 16 -3 7 4 8 2 4 -4 -4 -6 -13
-9 -21 -5 -15 5 -18 -2 -18 -39 0 -10 -3 -15 -8 -13 -8 6 -5 38 6 55 3 6 2 10
-4 10 -6 0 -14 -12 -17 -26 -5 -19 -9 -22 -15 -12 -7 10 -9 9 -9 -4 0 -10 -4
-18 -10 -18 -5 0 -7 7 -4 15 4 8 1 15 -6 15 -6 0 -9 -4 -5 -9 3 -5 1 -12 -5
-16 -6 -4 -8 -11 -5 -16 4 -5 0 -9 -8 -9 -8 0 -18 -10 -21 -22 -6 -23 -6 -23
-23 -3 -16 21 -16 20 4 -32 4 -12 -1 -10 -16 6 -11 13 -24 21 -28 17 -4 -4 -1
-11 7 -16 8 -5 11 -12 7 -16 -3 -4 -14 -1 -22 6 -13 11 -16 11 -13 -1 2 -8 8
-17 13 -21 6 -5 3 -8 -6 -8 -9 0 -22 -7 -29 -15 -7 -8 -20 -14 -29 -13 -10 2
-15 -3 -13 -14 3 -20 -14 -33 -24 -17 -5 8 -3 9 7 4 11 -7 12 -6 2 7 -7 8 -9
19 -5 23 4 5 1 5 -6 1 -7 -4 -10 -11 -7 -16 7 -11 -20 -31 -31 -22 -4 4 -2 -1
5 -10 14 -19 26 -25 16 -8 -3 6 1 7 10 3 13 -4 14 -8 4 -14 -7 -4 -21 -3 -31
2 -11 6 -18 6 -18 0 0 -5 5 -11 12 -13 6 -2 8 -10 4 -17 -6 -9 -11 -9 -22 0
-9 7 -14 8 -13 3 4 -22 -2 -45 -11 -39 -5 3 -7 13 -4 23 5 15 4 15 -6 -1 -6
-9 -16 -14 -22 -11 -7 4 -8 2 -4 -5 4 -6 11 -9 15 -7 4 3 13 -5 21 -17 11 -19
11 -20 -1 -11 -21 16 -51 26 -44 14 3 -6 1 -10 -4 -10 -6 0 -11 -5 -11 -10 0
-6 5 -9 11 -8 6 2 14 -3 16 -9 6 -15 -13 -17 -22 -3 -7 12 -25 4 -25 -11 0 -6
6 -7 13 -3 6 4 2 -4 -11 -18 -15 -16 -31 -24 -47 -22 -21 2 -23 -1 -15 -16 11
-20 4 -31 -15 -24 -7 3 -15 -4 -18 -15 -4 -16 -10 -19 -24 -14 -13 5 -11 0 7
-18 14 -13 19 -19 12 -13 -11 9 -19 8 -33 -4 -10 -8 -15 -20 -12 -25 4 -7 -1
-8 -13 -3 -10 4 -15 4 -12 0 4 -3 -6 -17 -23 -31 -16 -14 -27 -28 -24 -33 2
-4 -4 -15 -14 -24 -10 -9 -17 -27 -15 -41 3 -30 1 -30 -22 -8 -16 16 -16 16
-10 -5 5 -14 3 -22 -4 -22 -6 0 -8 -5 -4 -11 4 -8 9 -7 15 2 4 7 11 10 16 5 4
-4 0 -12 -10 -17 -9 -6 -15 -14 -13 -18 3 -4 -1 -8 -8 -8 -8 0 -12 7 -10 16 3
9 -1 6 -7 -7 -7 -12 -16 -22 -21 -22 -5 0 -6 -10 -3 -21 5 -16 4 -19 -5 -14
-8 5 -11 4 -6 -3 3 -6 2 -13 -4 -17 -5 -3 -10 -12 -10 -18 0 -7 5 -4 11 5 5
10 15 18 20 18 6 0 3 -7 -5 -16 -9 -8 -13 -20 -10 -26 4 -6 -2 -8 -16 -3 -15
5 -20 4 -16 -4 4 -6 9 -24 12 -39 3 -19 2 -23 -5 -12 -5 8 -8 17 -5 21 2 4 0
11 -6 14 -6 4 -10 3 -9 -2 3 -12 -13 -47 -25 -56 -7 -6 -4 -7 6 -4 9 3 22 -2
30 -11 12 -16 11 -16 -6 -2 -18 14 -19 13 -13 -3 5 -14 3 -16 -11 -8 -15 8
-18 5 -17 -17 0 -17 6 -26 14 -24 7 1 10 -2 6 -8 -8 -13 -45 5 -45 22 0 6 -3
8 -7 5 -3 -4 4 -18 16 -31 19 -20 20 -24 6 -30 -9 -3 -13 -2 -10 3 3 5 2 12
-2 14 -5 3 -9 -8 -10 -25 0 -17 2 -25 7 -18 5 8 9 7 13 -5 4 -9 3 -14 -1 -11
-4 2 -14 -1 -22 -7 -17 -14 -27 -53 -11 -42 6 3 11 -1 11 -10 0 -12 -6 -15
-22 -10 -17 5 -19 4 -9 -3 8 -6 15 -29 16 -54 1 -23 0 -37 -2 -30 -3 6 -9 9
-15 6 -6 -4 -6 0 0 13 8 15 8 20 -3 20 -7 0 -11 -7 -7 -15 4 -11 2 -13 -9 -7
-12 7 -12 6 -1 -7 9 -12 10 -23 2 -43 -9 -25 -9 -26 5 -15 8 7 18 10 22 6 3
-3 1 -6 -5 -6 -7 0 -12 -5 -12 -11 0 -6 7 -9 15 -5 25 9 17 -2 -12 -18 -24
-13 -20 -21 8 -18 3 1 6 -6 6 -13 0 -11 -3 -12 -14 -3 -11 9 -18 7 -31 -5 -11
-12 -12 -17 -4 -17 8 0 10 -5 6 -12 -4 -6 1 -17 11 -25 11 -7 13 -13 7 -13 -7
0 -11 -3 -11 -7 3 -18 -1 -33 -8 -31 -11 4 -14 -13 -7 -35 3 -10 0 -25 -7 -33
-6 -8 -9 -17 -5 -21 3 -3 6 -1 6 6 0 7 5 9 11 5 8 -4 8 -9 0 -17 -6 -6 -11
-16 -11 -21 0 -7 3 -6 8 1 5 8 11 3 19 -13 10 -22 10 -24 -3 -13 -13 10 -17
10 -25 -2 -13 -21 -11 -29 9 -29 14 0 15 2 2 10 -9 6 -10 10 -3 10 18 0 26
-19 11 -25 -7 -3 -14 -17 -15 -32 l-1 -28 12 24 c9 15 16 20 20 12 4 -6 2 -11
-3 -11 -6 0 -11 -7 -11 -16 0 -8 4 -13 8 -10 5 3 9 -1 9 -9 0 -11 -4 -12 -13
-4 -8 7 -14 6 -20 -2 -5 -8 -3 -9 6 -4 10 6 12 4 7 -8 -4 -12 -2 -14 11 -10
15 6 16 5 2 -12 -14 -17 -13 -17 9 -10 21 6 22 5 10 -8 -8 -8 -17 -13 -21 -10
-4 2 -5 -3 -2 -12 5 -11 2 -14 -12 -9 -15 5 -16 4 -4 -4 10 -8 18 -8 27 0 8 6
16 8 20 4 3 -3 1 -6 -5 -6 -7 0 -11 -15 -10 -40 1 -24 6 -39 12 -37 6 2 10 13
8 23 -2 15 -1 16 7 5 12 -19 3 -41 -18 -42 -10 0 -11 -2 -3 -6 6 -2 12 -9 12
-14 0 -4 -6 -7 -12 -5 -7 1 -9 1 -5 -2 4 -2 2 -11 -5 -20 -8 -9 -8 -13 -1 -9
6 4 19 -7 32 -28 11 -19 16 -35 11 -35 -5 0 -13 7 -18 16 -8 15 -10 15 -15 0
-4 -10 -3 -14 2 -11 14 8 27 -14 30 -50 0 -8 6 -15 11 -15 7 0 7 7 0 23 -10
20 -10 21 4 4 8 -11 12 -26 9 -35 -5 -11 -3 -13 7 -7 9 5 11 4 6 -4 -6 -9 -11
-9 -22 0 -12 10 -13 9 -8 -5 3 -9 11 -16 16 -16 6 0 8 -12 5 -26 -3 -18 -1
-24 9 -20 9 3 11 -3 8 -22 -3 -15 -2 -23 2 -19 14 13 33 -26 22 -46 -5 -10 -6
-22 -2 -25 4 -4 9 -1 11 6 6 17 20 15 20 -3 0 -8 -4 -12 -9 -9 -4 3 -8 -4 -8
-15 0 -12 5 -21 10 -21 6 0 10 -12 10 -27 0 -23 2 -25 11 -13 9 12 10 12 5 -3
-3 -10 -6 -20 -6 -23 0 -2 -8 -1 -17 3 -19 7 -18 5 9 -15 12 -10 18 -10 24 -1
5 8 3 10 -7 4 -8 -5 -10 -4 -6 0 4 5 15 10 24 11 12 2 13 0 4 -9 -17 -17 -13
-27 7 -21 14 5 14 4 2 -4 -8 -6 -18 -8 -22 -6 -4 3 -8 0 -8 -7 0 -7 9 -9 23
-6 22 6 22 6 2 -11 -21 -18 -25 -35 -12 -49 5 -4 8 -3 7 2 -5 23 1 35 18 34
10 0 12 -3 5 -6 -9 -3 -10 -10 -3 -23 5 -10 7 -27 3 -37 -6 -16 -5 -17 12 -3
16 14 17 13 11 -8 -6 -18 -4 -22 16 -22 18 0 20 -2 8 -9 -8 -6 -19 -7 -25 -4
-5 4 -2 -3 8 -14 9 -11 14 -23 10 -28 -5 -4 -2 -5 5 -1 10 6 10 11 1 22 -8 10
-8 14 0 14 10 0 15 -13 12 -32 0 -5 3 -8 9 -8 5 0 10 -8 10 -18 0 -11 10 -24
23 -30 20 -10 20 -11 2 -9 -12 1 -20 -4 -20 -13 0 -8 7 -15 15 -15 10 0 15 -9
14 -27 0 -22 3 -25 13 -16 11 9 11 13 1 19 -8 5 -5 8 10 6 14 -1 18 -5 12 -11
-14 -14 -12 -29 3 -20 9 6 9 4 1 -7 -8 -9 -8 -21 -3 -34 8 -18 9 -17 5 4 -3
13 -1 20 4 15 16 -17 16 -49 0 -46 -12 3 -13 1 -2 -10 11 -11 14 -10 21 1 5 7
6 22 4 32 -3 10 -1 19 5 19 5 0 8 -14 6 -31 -3 -25 -1 -29 9 -20 10 8 14 7 14
-4 0 -8 -4 -12 -9 -9 -4 3 -8 0 -8 -5 0 -10 14 -15 33 -12 5 1 6 -3 2 -9 -3
-5 0 -10 8 -10 8 0 15 -10 16 -22 2 -49 6 -66 13 -62 4 3 8 0 8 -5 0 -6 7 -11
15 -11 8 0 15 -5 15 -10 0 -6 5 -9 12 -8 11 3 13 -1 17 -34 1 -9 4 -8 11 2 6
9 10 10 10 3 0 -6 -5 -15 -11 -19 -12 -7 6 -24 26 -24 6 0 3 5 -5 10 -9 6 -10
10 -3 10 6 0 15 -5 18 -10 4 -6 10 -8 15 -5 5 3 12 1 15 -5 4 -6 1 -9 -7 -8
-8 2 -12 -5 -10 -17 2 -11 4 -25 4 -32 1 -7 5 -10 9 -7 4 2 11 -1 14 -7 4 -5
13 -8 20 -5 14 5 26 -16 21 -37 -1 -6 -1 -9 1 -4 3 4 9 7 14 7 6 0 7 -5 3 -12
-5 -7 -2 -9 8 -6 11 5 14 0 13 -17 -3 -19 1 -23 21 -20 29 3 40 -10 25 -29 -8
-9 -7 -13 4 -13 8 0 12 4 9 9 -3 4 0 8 5 8 6 0 11 -6 11 -12 0 -9 4 -8 10 2 5
8 10 10 10 4 0 -5 -6 -16 -12 -23 -10 -11 -10 -13 0 -7 7 5 12 1 13 -11 0 -10
3 -13 6 -5 2 6 9 12 14 12 6 0 7 -4 4 -10 -3 -5 -1 -10 4 -10 6 0 11 5 11 12
0 6 3 8 6 5 4 -4 1 -13 -6 -22 -9 -11 -9 -15 -1 -15 7 0 9 -5 5 -12 -4 -7 -3
-8 5 -4 6 4 8 12 5 18 -4 7 -2 8 5 4 7 -5 9 -17 5 -29 -6 -22 -6 -22 10 -2 13
16 15 17 10 2 -4 -11 -1 -17 10 -17 9 0 13 6 10 14 -3 8 -1 17 4 20 5 3 8 -7
6 -24 -4 -31 10 -48 22 -29 5 8 3 9 -6 4 -9 -5 -11 -4 -6 4 12 19 22 4 20 -30
-1 -21 1 -28 8 -21 13 13 40 3 31 -12 -4 -6 2 -4 12 4 11 9 16 10 11 3 -9 -16
6 -17 22 -1 7 7 12 8 12 4 0 -5 -8 -15 -17 -22 -17 -12 -16 -13 4 -9 27 4 39
-11 24 -29 -8 -9 -7 -13 4 -13 8 0 12 3 10 7 -2 3 5 11 16 18 15 10 19 10 17
0 -2 -7 2 -12 8 -11 14 3 14 -28 0 -47 -9 -13 -8 -13 4 -3 20 15 57 13 57 -4
0 -9 -4 -10 -14 -2 -9 9 -13 8 -13 0 0 -7 -5 -9 -12 -5 -6 4 -8 3 -5 -3 7 -11
43 -11 53 0 14 13 26 7 15 -7 -10 -11 -6 -13 23 -11 24 1 33 -2 29 -11 -6 -16
26 -66 39 -58 5 3 16 0 24 -7 9 -7 23 -14 32 -15 19 -3 33 -24 25 -39 -4 -5
-2 -6 3 -2 14 13 11 31 -6 44 -8 6 -12 15 -7 19 4 4 7 2 7 -5 0 -7 5 -9 10 -6
9 6 14 -8 11 -27 0 -5 4 -8 10 -8 5 0 7 -5 3 -12 -4 -7 -3 -8 4 -4 6 4 9 12 6
20 -3 7 1 13 9 13 9 0 12 -8 9 -24 -4 -21 -1 -23 23 -19 21 4 25 2 21 -10 -4
-10 -2 -13 7 -7 18 11 38 13 31 2 -3 -5 -10 -7 -15 -4 -5 4 -9 1 -9 -4 0 -11
21 -15 49 -12 8 2 10 -2 5 -11 -5 -9 -2 -8 11 2 17 14 18 13 11 -4 -7 -20 -7
-20 15 0 12 10 19 13 15 7 -4 -7 -2 -13 3 -13 6 0 11 -5 11 -11 0 -8 -5 -8
-15 1 -10 9 -15 9 -15 1 0 -6 5 -11 11 -11 5 0 7 -6 3 -13 -6 -9 -5 -9 7 0 8
6 24 10 34 8 11 -2 23 -4 28 -4 4 -1 7 -7 7 -14 0 -8 12 -19 26 -25 19 -9 24
-9 18 0 -5 8 -2 9 10 5 14 -6 17 -3 12 10 -4 12 0 11 10 -4 13 -18 20 -20 35
-13 14 8 17 7 13 -4 -6 -14 -20 -16 -40 -3 -7 4 -18 -1 -25 -11 -12 -15 -12
-16 2 -4 13 10 18 10 28 -1 12 -15 38 -16 60 -2 10 5 12 4 7 -4 -5 -8 0 -10
18 -7 19 3 27 -1 32 -16 5 -16 8 -18 14 -7 7 11 12 10 28 -5 15 -13 21 -14 25
-4 4 9 6 8 6 -4 1 -9 -4 -18 -11 -20 -7 -3 -5 -7 6 -11 9 -4 15 -3 12 2 -3 4
4 17 15 27 11 10 19 14 17 9 -4 -15 34 -55 46 -47 17 10 37 11 30 1 -3 -5 -9
-7 -13 -5 -4 3 -8 -2 -8 -10 0 -9 4 -11 10 -5 5 5 16 7 23 4 12 -4 12 -8 2
-22 -11 -14 -11 -14 2 -4 19 14 42 12 64 -7 14 -11 19 -11 29 0 9 10 9 11 -1
6 -7 -4 -20 -2 -28 5 -9 7 -23 14 -31 15 -9 2 -20 7 -25 12 -17 17 31 6 51
-12 11 -10 24 -15 30 -12 15 9 24 -13 12 -28 -8 -9 -7 -13 4 -13 7 0 13 5 12
10 -1 5 10 10 24 11 20 1 25 -2 21 -14 -5 -13 -4 -13 12 -1 15 13 19 13 26 1
5 -8 6 -19 3 -25 -4 -5 -3 -7 2 -3 4 4 14 3 21 -3 8 -6 14 -7 18 0 4 6 14 7
23 4 10 -4 14 -2 9 5 -3 6 -2 14 4 17 6 4 9 1 8 -5 -2 -7 6 -14 16 -16 10 -1
23 -9 27 -16 5 -7 9 -10 9 -5 0 13 60 -23 60 -36 0 -9 2 -9 8 1 5 8 22 11 46
8 25 -4 35 -2 30 6 -4 7 -3 8 5 4 6 -4 9 -12 6 -17 -4 -5 2 -6 12 -2 16 6 17
5 3 -13 -14 -17 -14 -18 2 -6 13 10 17 10 22 0 3 -7 3 -2 0 12 -4 17 -2 21 4
11 8 -11 11 -11 16 0 3 8 3 4 1 -8 -6 -24 9 -40 21 -22 5 8 3 9 -6 4 -9 -5
-11 -4 -6 3 5 8 13 9 25 2 10 -5 28 -8 40 -5 11 2 23 0 26 -5 3 -5 -3 -7 -15
-5 -11 2 -22 0 -25 -5 -3 -4 3 -7 12 -5 10 1 25 -1 34 -6 21 -11 41 4 34 27
-4 10 1 7 9 -7 8 -15 25 -29 36 -32 18 -5 19 -3 8 10 -12 15 -11 15 10 4 12
-7 21 -15 18 -19 -5 -9 47 -8 61 1 6 4 19 0 27 -9 9 -8 16 -11 16 -6 0 6 7 13
16 16 14 5 15 4 4 -9 -7 -8 -9 -15 -4 -16 47 -4 62 -4 58 3 -2 3 0 10 6 13 6
4 9 1 8 -7 -2 -7 5 -12 14 -12 10 1 17 -1 16 -5 0 -3 0 -13 1 -21 1 -12 3 -12
10 -2 11 17 21 17 32 0 6 -9 9 -6 10 12 0 23 1 23 9 5 5 -11 9 -15 9 -8 1 7 8
10 17 6 9 -3 20 0 26 8 8 11 9 10 4 -4 -3 -9 -1 -17 4 -17 5 0 7 -8 4 -17 -5
-14 -4 -15 4 -4 6 8 17 11 26 8 10 -4 16 -1 16 8 0 7 4 16 9 20 6 3 9 -2 7
-12 -2 -10 0 -27 4 -37 6 -19 7 -19 12 2 4 14 2 20 -4 15 -6 -3 -8 -2 -5 4 7
11 43 10 54 -2 5 -4 3 -5 -3 -2 -16 9 -39 -19 -24 -28 6 -4 9 -1 8 6 -4 16 22
19 42 5 10 -8 9 -2 -4 19 -19 30 -19 30 1 12 11 -9 23 -14 28 -10 4 5 5 2 1
-5 -4 -7 -1 -12 9 -12 10 0 13 -5 9 -13 -6 -9 -4 -9 8 1 12 10 18 10 24 1 5
-8 13 -4 26 12 11 13 17 18 13 12 -3 -7 -1 -13 5 -13 6 0 9 -4 6 -9 -9 -14 26
-23 38 -11 8 8 6 9 -6 5 -11 -4 -18 -2 -18 4 0 6 6 10 13 9 6 -2 11 3 9 10 -1
8 2 11 8 7 6 -3 8 -10 5 -15 -8 -13 25 -28 46 -23 10 3 16 10 12 16 -3 6 -1 7
5 3 6 -4 8 -14 5 -23 -4 -11 -3 -14 5 -9 7 4 12 15 12 24 0 14 2 15 10 2 6 -9
5 -19 -3 -29 -8 -10 -4 -9 15 3 17 11 28 13 33 7 3 -6 1 -11 -6 -11 -7 0 -9
-3 -6 -6 4 -4 13 -2 20 4 8 7 18 8 22 4 5 -4 6 -2 2 3 -3 6 3 12 14 12 16 2
18 -1 9 -12 -8 -10 -8 -15 2 -21 7 -4 10 -4 6 0 -4 5 -1 14 5 21 10 10 14 9
23 -7 10 -18 12 -18 17 -4 4 10 3 15 -3 11 -16 -10 -12 1 6 15 12 11 15 11 12
0 -2 -8 5 -16 16 -18 13 -3 16 0 11 9 -5 8 -4 10 3 5 7 -4 12 -13 12 -20 0 -7
7 -13 15 -13 11 0 12 4 4 13 -8 9 -5 11 10 7 12 -3 19 -9 16 -13 -3 -4 2 -11
11 -14 23 -9 24 -8 24 17 0 17 2 19 9 7 6 -8 8 -17 5 -21 -2 -4 0 -10 5 -13 5
-4 12 -2 16 4 9 14 45 13 45 -2 0 -6 3 -8 6 -5 4 4 1 14 -7 24 -9 11 -10 14
-1 9 7 -4 12 -2 12 6 0 8 4 6 11 -4 5 -10 19 -23 30 -29 20 -10 20 -10 4 18
-11 17 -12 21 -2 11 16 -20 37 -24 37 -6 0 6 3 8 6 5 4 -4 2 -13 -5 -21 -9
-11 -8 -15 4 -20 11 -4 14 -2 9 6 -5 8 -2 9 10 5 9 -4 14 -3 11 2 -3 5 0 13 6
17 8 5 9 3 5 -5 -6 -9 2 -11 33 -6 23 3 41 2 41 -3 0 -5 -11 -8 -24 -7 -18 2
-23 -1 -19 -12 5 -12 7 -12 14 -1 8 11 10 11 18 -1 7 -11 9 -11 14 0 4 12 7
11 16 -1 6 -9 11 -10 11 -3 0 6 11 10 25 9 16 -2 22 1 18 8 -3 6 -3 8 2 4 4
-4 14 -3 20 2 9 7 16 6 25 -5 7 -8 19 -15 27 -15 8 0 11 -5 7 -12 -4 -7 -3 -8
5 -4 6 4 9 11 7 15 -3 4 0 13 5 21 8 12 9 11 7 -4 -2 -10 2 -21 9 -23 8 -3 11
3 8 17 -2 11 0 18 6 15 5 -4 7 -10 4 -15 -3 -5 0 -12 6 -15 5 -4 8 -13 5 -21
-8 -22 2 -17 15 7 8 15 8 19 0 15 -6 -4 -11 -2 -11 3 0 15 17 14 26 -1 5 -8
11 -6 19 6 11 15 13 15 19 1 4 -11 2 -14 -7 -9 -8 5 -8 2 2 -9 12 -15 31 -15
31 -1 0 3 -5 2 -12 -2 -7 -4 -8 -3 -4 4 4 6 13 9 21 6 8 -4 12 -11 8 -17 -4
-6 -1 -7 6 -3 7 5 10 14 7 22 -3 9 0 11 11 7 12 -5 14 -3 8 7 -6 9 -4 11 4 5
9 -5 10 -10 2 -18 -14 -14 -14 -27 0 -27 5 0 8 4 5 9 -3 4 14 8 39 7 24 0 42
-3 40 -6 -2 -3 5 -6 15 -6 14 0 16 4 9 12 -7 8 -6 15 2 20 8 4 9 3 5 -4 -9
-15 6 -16 21 -1 8 8 15 4 27 -12 9 -13 17 -20 17 -16 1 4 2 11 3 16 0 5 4 13
8 17 4 3 5 -4 3 -16 l-4 -23 22 22 c36 33 42 25 7 -9 -17 -17 -27 -30 -22 -30
5 0 17 9 26 19 11 12 25 17 38 13 16 -4 19 -2 13 8 -5 9 -4 11 4 6 6 -4 9 -11
6 -16 -3 -4 5 -6 17 -2 16 4 19 2 13 -8 -5 -9 -4 -11 4 -6 9 6 9 12 -1 24 -11
15 -11 15 3 4 9 -7 25 -9 35 -5 17 6 17 5 5 -10 -8 -10 -11 -20 -7 -24 3 -3 6
-1 6 5 0 18 21 14 37 -5 9 -11 8 -6 -2 11 -17 28 -11 29 23 2 19 -14 52 -18
52 -6 0 6 -5 9 -11 8 -6 -2 -14 4 -16 12 -4 12 -3 12 5 1 7 -9 12 -10 16 -2 9
14 26 14 26 0 0 -5 -4 -7 -10 -4 -6 3 -7 -1 -3 -10 5 -14 8 -14 15 -3 8 10 11
10 15 0 5 -13 23 -7 23 9 0 6 -4 8 -9 4 -5 -3 -12 -2 -15 3 -2 4 15 8 40 8 42
0 55 -8 34 -21 -5 -3 -10 -2 -10 3 0 5 -7 9 -15 9 -8 0 -13 -3 -10 -5 3 -3 0
-11 -6 -18 -7 -8 -7 -14 1 -19 6 -4 9 -1 8 7 -2 7 4 13 12 13 8 0 20 4 27 8 6
4 13 4 16 0 2 -5 2 -2 1 5 -4 16 1 15 21 -4 13 -14 19 -14 28 -4 9 10 9 11 -2
5 -9 -5 -12 -4 -7 3 4 7 2 12 -5 12 -7 0 -10 3 -6 6 6 7 54 -24 49 -31 -2 -3
-2 -9 1 -13 2 -4 2 -2 1 5 -5 20 14 25 19 6 4 -14 5 -13 6 4 0 12 6 25 12 29
8 4 9 -1 4 -17 -7 -21 -6 -22 9 -10 9 7 16 9 16 3 0 -15 25 -21 41 -10 11 8
11 9 -3 5 -9 -3 -19 1 -22 9 -3 8 -2 13 2 10 22 -13 61 -13 66 0 4 11 10 12
31 2 14 -6 23 -13 21 -15 -2 -3 -14 0 -25 7 -17 9 -21 8 -21 -5 0 -9 6 -15 13
-12 6 2 20 0 31 -5 13 -7 16 -7 12 1 -4 6 -3 11 3 11 5 0 13 -5 16 -10 3 -6
11 -10 16 -10 6 0 -3 11 -18 25 l-28 24 36 -17 c20 -9 35 -20 33 -24 -3 -4 1
-10 8 -14 7 -4 10 -4 6 1 -4 4 -2 15 5 23 10 13 9 14 -3 7 -13 -8 -13 -7 -1 8
13 17 26 24 18 10 -3 -5 -1 -17 4 -28 5 -14 8 -16 8 -4 1 16 31 23 31 6 0 -5
11 -6 25 -3 17 4 24 2 21 -6 -1 -7 -1 -9 2 -5 2 4 11 2 20 -5 14 -10 15 -10 5
2 -15 16 -17 34 -4 26 5 -4 11 -1 13 6 3 7 7 5 11 -6 5 -12 3 -15 -6 -10 -8 5
-7 2 2 -9 18 -23 19 -22 16 13 -1 16 1 27 6 24 5 -3 7 -9 4 -13 -6 -11 33 -46
42 -38 3 4 1 7 -6 7 -7 0 -9 5 -5 12 5 7 3 8 -7 3 -12 -8 -12 -6 0 8 14 18 26
23 16 8 -7 -12 9 -22 41 -26 19 -2 24 1 19 13 -5 13 -3 13 13 -1 10 -9 22 -14
25 -10 4 3 7 1 7 -5 0 -20 20 -13 30 11 7 17 9 18 9 5 1 -10 6 -18 12 -18 5 0
7 6 3 13 -5 8 -2 8 9 -2 9 -7 17 -10 17 -5 0 5 5 2 10 -6 6 -10 10 -11 10 -2
0 8 17 12 51 12 27 0 48 4 45 8 -2 4 4 8 14 8 10 0 17 -3 15 -6 -2 -3 8 -10
21 -17 13 -6 22 -7 18 -2 -10 16 9 9 22 -9 12 -15 13 -13 4 13 -9 29 -9 30 6
8 15 -22 42 -34 30 -14 -4 5 2 8 11 6 10 -2 20 -4 22 -4 3 -1 -4 -8 -15 -17
-18 -15 -17 -15 7 -1 20 12 29 13 39 4 10 -9 11 -9 5 2 -6 11 -4 13 8 8 10 -3
17 -2 17 2 0 5 -6 11 -12 14 -7 2 -2 4 12 4 14 0 34 3 45 7 11 4 8 0 -7 -9
-29 -16 -35 -30 -18 -40 6 -4 7 1 3 12 -3 10 -3 15 2 11 4 -4 15 -2 23 5 11 8
14 8 9 0 -4 -6 -3 -14 3 -18 6 -4 7 -11 4 -17 -4 -7 -2 -8 5 -4 9 6 9 11 0 22
-13 16 -13 16 18 19 12 1 20 -2 17 -7 -3 -4 -11 -5 -17 -1 -7 4 -6 0 2 -10 15
-19 26 -23 15 -5 -5 7 -2 9 9 5 12 -4 14 -2 10 11 -3 9 -3 14 2 10 4 -4 13 -3
20 2 8 7 12 5 12 -5 0 -8 -4 -12 -8 -10 -9 6 -5 -22 5 -32 4 -4 6 -1 4 7 -2 9
6 16 21 18 13 2 21 0 18 -5 -3 -4 5 -9 18 -9 19 -2 21 1 12 11 -7 7 -14 11
-17 10 -3 -2 -12 1 -20 6 -24 15 18 5 64 -14 27 -12 43 -14 50 -7 14 14 29 13
20 -2 -4 -6 -3 -8 4 -4 5 3 12 3 15 -1 2 -5 2 -2 0 5 -1 8 3 12 9 10 7 -3 13
-10 13 -16 0 -5 3 -14 7 -18 4 -3 6 3 3 15 -2 11 0 21 6 21 5 0 9 -6 9 -12 0
-9 4 -8 10 2 6 10 10 11 10 3 0 -7 4 -13 9 -13 6 0 8 9 6 20 -2 12 0 18 6 15
5 -4 7 -10 4 -15 -3 -5 -1 -11 4 -14 5 -3 12 2 16 12 6 16 7 16 21 -2 8 -11
14 -15 14 -9 0 7 9 11 20 10 21 -1 26 -12 11 -21 -5 -4 -12 0 -14 6 -4 9 -6
10 -6 1 -1 -6 3 -14 7 -17 13 -8 33 10 35 32 0 11 5 19 9 16 4 -3 5 -11 2 -18
-4 -10 4 -13 30 -11 20 1 36 -3 36 -8 0 -6 9 0 20 13 16 18 20 20 20 7 0 -10
-5 -17 -11 -17 -5 0 -7 -5 -3 -11 5 -8 10 -6 16 5 5 9 14 16 19 16 6 0 8 -4 4
-9 -3 -5 -1 -12 4 -15 5 -4 8 2 7 11 -2 10 1 21 7 25 14 8 38 -2 31 -13 -3 -5
0 -9 5 -9 6 0 11 6 11 13 0 9 3 8 9 -2 7 -11 10 -9 16 8 3 11 11 21 16 21 6 0
8 -4 5 -8 -2 -4 -1 -14 5 -22 7 -13 9 -13 9 0 1 9 5 6 10 -7 11 -28 40 -20 41
11 0 15 2 17 7 6 9 -20 41 -24 48 -6 3 8 12 17 20 20 11 4 10 -1 -3 -22 l-18
-27 27 21 c27 21 84 25 97 6 11 -14 30 -12 25 3 -4 8 -10 13 -14 10 -5 -3 -11
-2 -14 3 -3 5 14 8 37 7 23 -1 46 0 51 3 18 10 54 8 49 -4 -2 -6 4 -17 14 -25
16 -13 17 -12 5 2 -10 13 -9 19 3 29 13 11 14 10 10 -2 -4 -9 0 -15 9 -15 8 0
13 4 10 9 -3 4 0 8 5 8 6 0 11 -9 11 -20 0 -11 4 -20 9 -20 4 0 7 11 6 25 -2
14 1 23 7 19 5 -3 16 2 24 12 14 18 15 18 5 -2 -10 -21 -6 -34 10 -34 5 0 5 8
2 18 -6 15 -5 15 10 3 9 -7 17 -10 17 -6 0 4 8 1 18 -6 15 -12 16 -12 5 1 -10
13 -8 18 10 30 20 12 21 12 8 -3 -7 -10 -10 -17 -5 -18 5 0 19 -2 32 -3 15 -2
21 2 18 10 -3 7 2 10 15 7 10 -3 16 -10 12 -17 -3 -6 -3 -8 2 -4 4 4 14 3 20
-2 9 -8 14 -6 18 4 4 10 1 13 -9 9 -7 -3 -14 1 -14 8 0 7 3 9 7 6 3 -4 13 -1
21 6 11 8 14 9 9 0 -5 -7 0 -12 13 -12 11 -1 29 -1 40 -2 13 0 18 -5 13 -12
-4 -7 2 -5 13 3 29 22 30 24 12 17 -12 -4 -15 -2 -11 9 4 10 9 12 18 4 6 -5
15 -7 19 -3 4 4 4 0 1 -9 -5 -12 0 -15 23 -13 16 1 35 6 42 10 7 4 17 2 22 -6
8 -11 8 -10 4 4 -5 15 -2 17 15 12 17 -6 20 -4 13 6 -6 12 -5 12 9 0 20 -16
23 -2 5 19 -11 12 -10 12 5 1 12 -10 21 -11 30 -2 10 8 17 7 25 -1 9 -9 12 -9
13 3 1 7 0 18 -1 24 -1 5 2 7 6 2 10 -9 13 -48 4 -42 -4 2 -7 -2 -7 -10 0 -13
3 -13 16 -2 18 15 30 16 50 3 10 -6 12 -5 7 2 -4 7 -2 12 4 12 6 0 9 4 5 9 -3
5 0 13 6 17 8 4 9 3 5 -4 -4 -7 -3 -12 3 -12 5 0 15 8 20 18 7 11 10 13 11 3
0 -9 4 -10 13 -4 6 6 25 8 40 6 21 -3 27 -1 21 9 -5 9 -3 9 7 -1 11 -10 11
-15 2 -18 -7 -3 -13 -9 -13 -15 0 -7 5 -6 14 1 8 6 18 11 22 10 5 -1 17 1 27
6 15 6 15 10 5 24 -11 14 -11 14 4 3 11 -9 18 -10 23 -2 8 13 25 13 25 0 0 -6
-3 -9 -7 -8 -10 4 -13 -6 -12 -29 0 -17 1 -17 8 0 3 10 18 24 31 31 14 7 24
19 22 26 -2 11 0 11 11 1 12 -9 16 -9 21 1 3 7 4 4 1 -7 -4 -17 0 -20 24 -20
16 -1 27 3 25 7 -3 4 -1 8 5 8 5 0 12 -6 14 -12 4 -10 6 -10 6 -1 1 18 -18 26
-34 13 -10 -8 -15 -8 -21 1 -4 7 -3 9 4 5 6 -3 14 -2 17 4 4 6 16 8 27 4 13
-4 18 -2 14 4 -3 6 -2 13 3 16 4 3 8 -2 7 -12 0 -9 4 -18 9 -19 6 -1 9 6 7 15
-2 14 0 14 13 -2 13 -18 19 -15 16 6 0 4 6 5 14 2 8 -4 15 -1 15 7 0 7 3 9 6
6 4 -4 2 -13 -4 -20 -9 -10 -8 -14 3 -14 8 0 12 4 9 9 -3 4 0 8 6 8 6 0 9 4 6
8 -2 4 5 9 17 9 17 2 18 0 7 -7 -11 -7 -10 -9 7 -7 12 0 19 5 17 9 -3 4 -1 8
5 8 5 0 12 -6 14 -12 4 -9 6 -8 6 3 1 8 -5 21 -11 28 -11 11 -10 12 0 6 7 -4
17 -17 22 -29 8 -19 9 -19 9 -2 1 19 1 19 22 0 15 -14 20 -15 17 -4 -2 11 6
15 32 14 19 -1 29 1 22 3 -6 3 -9 10 -6 15 4 6 2 8 -4 4 -6 -3 -14 -2 -17 4
-4 6 -1 9 7 8 7 -2 12 2 11 9 -2 7 4 10 13 6 11 -4 12 -8 4 -13 -8 -5 -7 -10
4 -19 11 -9 16 -9 22 0 5 8 3 10 -7 4 -8 -5 -10 -4 -6 0 10 12 39 16 32 5 -3
-5 -1 -11 4 -14 5 -4 8 4 7 17 -2 18 2 23 26 24 16 0 35 8 41 18 12 15 13 15
13 -4 0 -11 -5 -17 -11 -14 -5 4 -6 2 -2 -2 13 -15 35 -14 41 2 4 9 2 11 -6 7
-7 -4 -8 -3 -4 5 6 9 11 9 24 -1 9 -7 13 -8 10 -3 -4 6 -2 17 4 25 8 13 9 12
5 -2 -8 -22 17 -56 28 -38 5 9 4 11 -3 6 -14 -9 -16 13 -2 34 5 8 12 11 17 7
4 -5 1 -12 -6 -17 -10 -5 -6 -8 12 -7 21 2 23 5 14 16 -9 11 -9 13 0 8 6 -4
19 0 27 9 9 8 16 11 16 6 0 -5 -3 -12 -7 -16 -11 -10 -12 -37 -2 -30 5 3 7 9
4 14 -3 4 2 11 11 14 22 9 26 8 18 -6 -4 -6 -3 -8 4 -5 5 4 9 15 7 25 -1 9 0
11 2 5 6 -18 23 -16 23 1 0 8 5 18 11 22 8 4 9 -1 4 -17 -7 -24 -7 -24 13 -4
10 11 17 24 14 29 -3 5 0 6 7 2 9 -6 9 -11 -1 -24 -11 -13 -10 -14 7 -5 11 6
28 9 37 8 15 -3 16 0 7 17 -7 13 -7 18 -1 14 6 -3 12 -3 15 1 2 5 2 2 1 -4 -2
-7 1 -13 6 -13 6 0 10 5 10 11 0 5 5 7 10 4 6 -4 8 -10 5 -15 -3 -5 0 -12 7
-16 7 -4 10 -4 6 1 -4 4 -2 15 5 23 6 9 7 13 1 9 -6 -3 -11 0 -11 7 0 8 8 11
20 8 15 -4 18 -2 12 8 -5 9 -4 11 4 6 9 -6 9 -11 0 -22 -6 -8 -9 -17 -5 -21 3
-3 6 -1 6 6 0 7 5 9 12 5 7 -4 8 -3 4 4 -10 16 6 15 24 0 10 -9 9 -6 -1 7 -21
27 -36 57 -17 34 7 -8 23 -18 35 -21 20 -5 21 -4 12 14 -7 13 -7 18 -1 14 6
-3 12 -3 15 1 2 5 2 3 1 -4 -2 -6 3 -17 11 -23 11 -9 12 -7 8 10 -4 16 -2 19
11 14 9 -3 16 -11 16 -17 0 -6 3 -7 7 -4 3 4 -2 17 -13 29 -10 13 -12 18 -5
11 7 -6 20 -9 29 -6 9 4 13 2 9 -4 -3 -5 0 -10 7 -10 7 0 13 7 12 16 -1 11 6
15 22 13 12 -2 22 2 22 9 0 7 10 5 28 -6 l27 -18 -23 26 c-16 16 -20 27 -13
32 7 3 10 1 9 -7 -2 -9 6 -12 27 -9 29 3 48 18 40 32 -3 3 3 6 13 6 33 0 43 3
38 11 -3 5 1 9 9 9 8 0 12 -4 10 -8 -3 -3 4 -9 16 -12 15 -4 18 -2 10 7 -6 7
-8 16 -4 20 4 4 15 -3 25 -16 15 -18 17 -19 11 -4 -4 12 -3 17 4 13 12 -7 93
31 93 44 0 11 23 7 33 -6 4 -5 5 2 3 17 -3 15 0 31 6 34 7 5 8 2 3 -6 -6 -10
-4 -12 11 -6 15 6 17 5 7 -5 -7 -7 -13 -17 -13 -23 0 -5 8 1 19 12 18 22 38
31 26 13 -3 -5 -2 -12 3 -15 12 -7 11 26 -1 42 -7 9 -6 11 7 6 9 -3 16 -10 16
-16 0 -5 5 -6 10 -3 6 4 7 12 3 19 -4 7 -1 4 9 -6 9 -10 20 -18 24 -18 4 0 3
5 -4 12 -18 18 -14 28 11 28 13 0 32 9 42 20 10 11 20 18 23 15 3 -2 11 3 19
13 13 15 14 15 9 -8 -3 -14 -3 -19 0 -12 5 10 9 10 22 0 12 -10 14 -10 8 -1
-14 25 -14 50 0 50 16 0 19 -13 5 -19 -5 -1 -2 -10 7 -18 14 -13 15 -13 10 1
-4 9 2 23 13 33 25 21 30 20 22 -1 -6 -17 -6 -17 11 0 10 10 25 16 32 13 8 -3
11 0 7 10 -4 10 -9 11 -18 4 -8 -7 -12 -5 -12 5 0 8 4 12 8 9 5 -3 18 5 30 17
13 13 20 16 17 8 -3 -8 1 -20 9 -28 13 -12 14 -11 8 7 -5 17 -3 21 9 16 19 -7
21 7 4 26 -9 10 -7 10 7 -1 21 -16 45 -19 45 -6 0 4 0 10 0 13 0 4 -7 1 -15
-6 -13 -11 -14 -10 -9 4 7 19 9 19 37 4 20 -10 21 -10 8 6 -8 9 -11 19 -7 23
3 3 6 1 6 -5 0 -6 7 -9 15 -6 8 4 15 10 15 16 0 5 -6 6 -12 2 -7 -4 -10 -3 -5
1 4 5 18 10 30 12 18 2 19 1 7 -7 -11 -8 -6 -9 20 -5 19 3 37 9 40 12 3 3 -5
3 -17 0 -13 -3 -23 -2 -24 1 0 4 -2 15 -4 25 -2 9 1 15 6 11 5 -3 6 -10 3 -16
-4 -6 -1 -9 7 -6 8 3 13 14 11 24 -2 15 -1 16 7 4 5 -8 8 -17 6 -20 -2 -3 8
-6 22 -7 19 -1 22 1 12 8 -8 4 -15 17 -15 28 -1 11 3 18 8 15 4 -3 6 -10 3
-15 -4 -5 -1 -9 4 -9 6 0 11 5 11 10 0 6 7 10 16 8 10 -2 19 4 21 12 4 12 3
12 -5 1 -5 -7 -12 -9 -15 -5 -3 5 1 15 8 21 11 10 15 8 21 -10 5 -12 7 -26 5
-32 -1 -5 1 -6 5 -2 11 11 14 37 4 37 -5 0 -8 8 -7 18 0 10 7 19 14 19 10 0
10 -4 1 -14 -9 -11 -7 -12 7 -7 14 6 16 4 10 -7 -5 -8 4 -3 18 10 15 14 27 29
27 35 0 6 -5 3 -11 -7 -6 -9 -15 -15 -20 -11 -17 10 24 33 42 23 14 -7 16 -3
14 26 -1 19 2 32 7 29 4 -3 6 -9 3 -14 -3 -4 6 -7 19 -6 17 1 21 4 15 13 -7 7
-6 14 2 19 7 4 9 3 6 -3 -4 -6 0 -13 8 -17 18 -6 19 -1 5 24 -8 16 -8 18 5 14
8 -4 15 -10 15 -16 0 -5 7 -2 16 6 8 9 20 13 26 10 7 -4 8 -2 4 4 -4 7 -1 12
8 12 16 0 17 24 2 48 -7 11 -4 11 12 1 12 -7 19 -17 16 -21 -3 -4 2 -5 11 -2
14 6 14 8 -1 19 -16 11 -16 12 0 18 9 4 15 3 12 -1 -2 -4 4 -8 14 -8 14 0 16
3 8 13 -8 10 -5 13 11 13 11 0 21 4 21 10 0 5 -6 7 -14 4 -8 -3 -17 -1 -21 5
-4 7 0 8 11 4 12 -4 15 -3 10 5 -5 8 -2 10 9 6 10 -4 15 -2 13 6 -2 7 3 15 10
17 6 3 12 0 12 -7 0 -6 -4 -9 -8 -6 -4 2 -8 -4 -8 -15 0 -26 3 -24 21 11 9 16
12 30 9 30 -4 0 2 10 14 23 12 13 19 27 15 32 -5 4 -2 5 5 1 7 -4 10 -12 7
-17 -4 -5 4 -7 17 -6 13 2 23 9 23 15 0 20 15 25 32 11 16 -12 17 -12 7 1 -15
20 -25 62 -13 54 17 -10 50 -13 44 -3 -4 5 -10 7 -15 4 -5 -3 -12 -1 -15 5 -4
6 -3 10 2 9 21 -4 34 2 27 13 -5 7 -2 9 9 5 19 -7 44 18 27 28 -8 5 -4 12 9
22 12 8 18 19 15 25 -4 7 -2 8 5 4 9 -6 9 -11 0 -22 -7 -8 -7 -14 -1 -14 5 0
13 7 16 16 3 8 10 13 15 9 5 -3 13 0 17 6 4 8 3 9 -4 5 -7 -4 -12 -2 -12 4 0
6 -4 9 -9 5 -5 -3 -13 0 -17 6 -4 8 -3 9 5 5 6 -4 14 0 17 9 6 14 8 14 19 -2
8 -10 17 -15 21 -10 4 4 1 7 -6 7 -9 0 -7 5 6 15 14 11 15 14 3 9 -10 -3 -19
-2 -22 3 -3 5 6 10 21 11 14 1 30 9 35 17 4 9 14 12 20 9 7 -4 9 -3 4 1 -4 5
1 17 10 28 10 11 13 18 7 14 -6 -4 -16 6 -23 21 -9 22 -9 24 1 12 20 -24 41
-24 33 0 -5 14 -2 20 10 20 9 0 13 -5 9 -11 -4 -8 0 -8 15 0 11 7 21 14 21 17
0 3 -5 2 -10 -1 -6 -3 -17 0 -25 8 -13 13 -13 16 1 21 8 3 12 2 9 -4 -3 -6 -1
-10 4 -10 6 0 11 9 11 21 0 15 5 19 16 15 10 -4 13 -2 7 7 -11 18 -13 38 -2
31 5 -3 6 -10 3 -16 -4 -6 2 -6 15 1 11 7 20 15 20 19 -3 19 2 33 10 27 5 -3
13 0 17 6 4 7 3 9 -3 6 -6 -4 -13 2 -16 13 -4 16 -2 18 13 10 28 -15 36 -12
14 5 -10 8 -14 15 -9 15 6 0 3 5 -5 10 -11 8 -6 9 19 5 30 -5 32 -4 17 10 -21
22 -21 31 1 14 15 -12 16 -12 10 3 -3 10 -1 20 5 24 6 4 8 3 4 -4 -3 -6 -2
-13 3 -16 15 -10 6 25 -10 35 -10 7 -6 8 14 3 17 -4 27 -2 27 6 0 6 -4 8 -10
5 -5 -3 -10 -1 -10 5 0 6 -5 8 -10 5 -5 -3 -10 -2 -10 4 0 5 15 8 33 6 32 -4
32 -4 11 14 l-22 17 29 20 c29 19 39 44 17 44 -6 0 -9 3 -5 6 3 3 12 2 19 -2
19 -12 39 -14 32 -3 -3 5 -9 7 -14 4 -4 -3 -10 4 -13 15 -4 17 -2 18 16 8 l22
-11 -20 23 c-11 13 -14 20 -6 15 11 -6 13 -4 7 10 -5 14 -4 15 7 7 10 -8 13
-7 14 8 1 13 -3 17 -14 13 -11 -4 -9 1 5 15 24 24 41 30 23 8 -9 -10 -9 -16
-1 -21 6 -4 14 -4 17 -1 4 3 1 6 -6 6 -7 0 -9 5 -6 10 4 6 11 7 17 4 7 -5 8
-2 3 7 -14 21 -13 49 0 49 7 0 19 8 26 17 11 15 11 16 -1 6 -22 -21 -32 -15
-16 9 11 15 12 26 5 40 -12 22 -6 23 14 3 13 -12 15 -11 13 9 -1 16 -6 22 -16
19 -13 -4 -13 -4 0 6 8 6 11 11 6 11 -5 0 -4 6 2 13 6 6 10 14 11 17 0 19 16
40 32 45 10 4 19 11 19 16 0 6 -4 8 -9 5 -5 -3 -11 0 -14 7 -6 17 -4 33 6 29
4 -1 7 3 7 9 0 5 4 8 9 4 5 -3 13 0 17 6 5 8 3 9 -6 4 -10 -6 -12 -4 -7 9 4
10 7 20 7 22 0 3 4 3 9 -1 5 -3 13 0 17 6 4 8 3 9 -5 5 -6 -4 -14 0 -17 8 -3
9 -11 13 -18 9 -8 -4 -8 -2 1 7 6 7 9 20 5 29 -5 14 -3 14 12 -1 33 -33 31
-14 -3 25 -14 17 -13 17 14 7 l30 -10 -24 20 c-13 11 -18 20 -13 20 6 0 9 9 7
20 -2 11 1 22 6 26 5 3 7 15 4 27 -2 12 -2 16 1 10 3 -7 10 -13 15 -13 6 0 5
8 -1 20 -6 11 -8 20 -4 20 3 0 1 7 -6 15 -12 15 -10 17 19 19 8 1 16 7 19 15
3 10 -2 11 -19 6 -16 -4 -20 -3 -11 3 8 5 13 12 13 16 -3 19 0 27 7 22 5 -3 9
1 9 10 0 10 -7 12 -21 8 -21 -6 -21 -6 -1 9 11 8 23 13 27 11 4 -3 5 2 1 11
-4 13 -7 14 -14 3 -6 -9 -8 -6 -6 10 1 17 6 21 22 16 15 -4 17 -3 6 5 -21 14
-23 43 -4 56 13 10 13 14 3 20 -9 6 -11 4 -5 -6 8 -12 6 -12 -8 0 -9 7 -17 19
-17 25 0 6 5 4 10 -4 10 -16 13 -8 11 25 -2 17 0 17 8 5 6 -8 11 -10 11 -4 0
5 -5 15 -12 22 -7 7 -9 12 -5 12 4 0 3 9 -3 20 -9 16 -8 18 5 14 8 -3 12 -10
9 -15 -3 -5 0 -9 5 -9 16 0 14 11 -10 50 -21 34 -21 34 -1 17 15 -14 22 -15
28 -6 4 8 3 10 -4 5 -7 -4 -12 -3 -12 3 0 5 4 12 8 15 11 6 8 63 -3 73 -4 5
-5 1 0 -7 6 -11 3 -11 -10 2 -14 13 -16 20 -7 31 7 8 8 18 4 22 -4 5 -1 5 7 0
9 -5 12 -3 9 6 -3 8 -11 13 -18 11 -11 -3 -11 0 0 12 14 18 25 22 15 6 -3 -5
-1 -10 4 -10 6 0 11 7 11 15 0 8 -5 15 -11 15 -6 0 -1 9 12 21 13 11 18 18 12
14 -18 -9 -16 5 3 26 14 16 14 17 -3 15 -10 -2 -18 -8 -18 -14 0 -6 -4 -14 -9
-19 -5 -5 -6 -3 -2 5 4 6 2 12 -4 12 -14 0 8 24 30 33 11 4 10 6 -4 6 -12 1
-16 6 -12 16 3 8 -2 18 -11 23 -13 8 -13 10 2 16 14 5 15 9 5 21 -7 9 -10 18
-6 22 3 3 6 1 6 -6 0 -7 4 -10 9 -6 6 3 8 -4 6 -16 -2 -12 -1 -18 3 -15 4 4 7
11 7 14 0 4 4 13 9 21 6 9 5 12 -1 8 -6 -4 -18 2 -27 12 -13 15 -14 18 -1 18
8 0 12 -3 10 -7 -2 -4 3 -7 11 -7 9 0 11 4 5 10 -5 5 -7 17 -4 26 4 14 3 14
-6 1 -9 -13 -11 -12 -11 6 0 11 -6 26 -12 34 -7 7 3 3 22 -10 30 -21 33 -21
20 -5 -8 11 -17 22 -20 25 -3 3 -12 14 -20 24 -15 19 -14 19 13 1 24 -15 27
-16 21 -1 -3 9 -10 16 -15 16 -5 0 -9 5 -9 11 0 5 4 7 10 4 6 -3 7 1 4 9 -3 9
-11 13 -17 9 -6 -3 -7 -1 -3 6 4 6 2 20 -6 29 -12 15 -11 16 5 3 13 -10 17
-10 17 -1 0 9 4 9 17 -1 15 -13 15 -11 -1 13 -11 17 -13 28 -7 33 7 4 6 14 -4
29 -9 13 -12 31 -9 41 6 14 4 16 -6 10 -9 -5 -11 -4 -6 4 4 6 2 20 -6 29 -12
15 -11 16 5 3 13 -10 17 -10 17 -1 0 9 4 9 17 -1 15 -13 15 -11 -1 13 -11 17
-13 28 -7 33 7 4 6 14 -4 29 -9 13 -12 31 -9 41 6 14 4 16 -6 10 -9 -5 -11 -4
-6 4 4 6 2 20 -6 29 -12 15 -11 16 5 3 13 -10 17 -10 17 -1 0 9 4 9 17 -1 15
-13 15 -11 -1 13 -11 17 -13 28 -7 33 7 4 6 14 -4 29 -9 13 -12 31 -9 41 5 11
3 16 -2 12 -5 -3 -10 3 -10 13 0 10 4 16 8 14 14 -9 9 10 -9 36 -13 19 -14 22
-2 13 26 -21 40 4 21 37 -16 27 -15 30 3 52 15 17 16 19 3 9 -15 -11 -18 -11
-19 0 -1 15 -5 31 -8 39 -8 17 -8 41 0 46 5 3 6 10 3 16 -4 6 -2 8 4 4 6 -3
14 -1 18 5 4 7 3 9 -2 6 -6 -3 -16 -2 -24 4 -12 7 -9 9 10 9 14 0 20 4 14 8
-16 11 -27 45 -11 36 6 -4 3 3 -8 16 -15 18 -16 22 -4 18 11 -4 15 0 14 15 -1
14 -9 23 -23 25 -31 5 -28 20 3 17 14 -2 27 1 30 5 3 5 -4 7 -16 5 -17 -4 -19
-2 -9 10 7 8 9 15 4 15 -5 0 -2 5 6 10 9 6 10 10 3 10 -7 0 -10 10 -7 25 2 14
0 25 -5 25 -6 0 -8 -10 -6 -21 3 -12 1 -18 -3 -15 -4 4 -7 11 -7 14 0 4 -4 13
-9 21 -6 10 -5 12 2 7 9 -5 12 7 13 41 1 26 0 53 -1 58 -2 10 -10 60 -12 83
-1 6 -8 12 -17 13 -10 0 -8 4 7 9 12 5 22 12 22 15 0 4 -4 3 -10 0 -5 -3 -10
-1 -10 4 0 6 6 11 13 11 6 1 1 8 -13 16 -14 8 -17 13 -8 10 10 -3 20 0 24 6 4
7 3 8 -4 4 -15 -9 -16 26 -1 41 7 7 2 10 -20 7 -26 -3 -29 -1 -19 10 7 8 16
12 19 10 4 -2 13 4 20 13 10 12 10 14 2 9 -8 -4 -13 -2 -13 5 0 9 -3 9 -14 0
-11 -9 -16 -9 -22 0 -4 7 -3 9 3 6 17 -11 23 20 7 33 -8 7 -14 17 -14 22 0 5
7 2 16 -6 19 -20 21 -20 21 -1 0 8 -4 12 -9 9 -4 -3 -8 2 -8 10 0 9 5 16 11
16 8 0 8 4 0 14 -8 10 -9 16 -1 19 6 3 5 4 -2 3 -7 -2 -12 -11 -10 -21 2 -11
-1 -14 -8 -10 -6 4 -9 13 -6 20 2 7 -3 23 -11 36 -9 12 -11 19 -5 15 16 -10
11 27 -7 47 -10 13 -9 15 6 13 11 -2 18 -11 17 -24 -1 -12 3 -19 8 -16 5 3 7
9 4 12 -3 3 -1 11 6 19 6 8 7 13 2 12 -21 -4 -28 2 -14 12 12 8 9 9 -10 4 -24
-6 -24 -5 -6 9 11 9 14 16 7 16 -7 0 -9 5 -5 12 4 7 3 8 -4 4 -7 -4 -12 -1
-12 8 0 9 -5 16 -12 16 -6 0 -8 3 -5 6 4 4 14 1 23 -7 16 -13 16 -12 5 9 -10
19 -10 26 1 40 9 11 10 14 1 8 -9 -5 -13 -1 -13 11 0 15 -2 16 -11 3 -8 -12
-9 -10 -4 7 5 19 3 22 -12 17 -14 -5 -15 -4 -4 4 8 6 11 17 8 26 -4 10 -1 16
8 16 7 0 16 4 19 9 3 4 -5 7 -19 6 -19 -3 -23 1 -20 17 3 14 0 18 -11 14 -9
-3 -12 -2 -9 5 4 6 13 8 19 6 7 -3 19 -1 27 4 12 7 12 9 -1 10 -8 1 -18 1 -22
0 -4 0 -5 6 -2 14 4 8 10 12 16 9 5 -3 2 8 -6 25 -9 17 -16 33 -16 36 1 11
-28 34 -34 28 -3 -4 -6 -3 -6 0 0 4 12 13 28 22 l27 16 -30 -6 c-16 -3 -25 -2
-19 2 16 12 24 52 12 60 -6 3 -8 1 -4 -5 3 -6 2 -13 -2 -16 -5 -3 -9 7 -8 22
0 19 -4 26 -14 24 -8 -2 -12 0 -8 4 4 4 0 13 -10 21 -12 10 -8 9 16 -2 17 -8
32 -20 32 -25 0 -6 5 -10 12 -10 6 0 2 10 -10 23 -20 21 -22 25 -22 47 0 5 -7
7 -15 4 -8 -4 -15 -1 -15 6 0 6 5 8 10 5 6 -3 10 2 10 11 0 16 1 16 16 -2 14
-18 15 -18 4 4 -8 17 -15 20 -29 13 -15 -8 -17 -6 -16 12 1 12 -3 28 -9 36 -9
12 -8 13 3 6 11 -6 13 -4 8 9 -4 9 -3 15 1 12 5 -3 9 1 9 9 0 8 -4 12 -9 9 -4
-3 -8 2 -8 10 0 9 6 16 13 17 6 0 -1 7 -18 14 -19 9 -24 14 -12 15 9 0 17 5
17 11 0 6 -6 9 -14 6 -9 -4 -13 2 -12 16 1 16 -4 21 -16 19 -10 -2 -18 2 -18
7 0 5 9 8 19 6 11 -2 22 3 25 10 3 8 0 12 -7 9 -7 -2 -21 3 -32 11 -20 16 -20
16 2 6 16 -8 22 -7 27 4 3 8 2 14 -2 14 -22 -4 -32 3 -32 22 0 13 -4 18 -12
13 -7 -4 -8 -3 -4 5 4 6 11 9 16 6 5 -3 12 0 16 6 4 7 3 10 -2 6 -5 -3 -18 1
-28 9 -17 12 -16 13 14 9 17 -2 29 -1 25 3 -6 7 -10 8 -36 11 -8 1 -8 5 0 15
9 11 8 15 -4 20 -9 3 -14 2 -11 -2 3 -5 -1 -9 -9 -9 -19 0 -19 2 1 22 14 13
19 14 25 3 6 -9 9 -9 9 -1 0 6 -7 18 -15 26 -8 8 -11 18 -7 22 4 4 2 6 -3 5
-22 -5 -35 1 -32 13 1 6 -4 11 -12 9 -11 -2 -12 0 -3 11 14 17 12 68 -3 65
-18 -2 -45 14 -39 24 3 5 12 1 20 -9 9 -12 13 -13 14 -5 0 7 5 10 12 6 7 -4 8
-3 4 5 -4 6 -12 8 -18 5 -8 -5 -9 -1 -4 11 4 11 2 21 -5 26 -6 4 -11 19 -11
34 0 19 -3 23 -9 14 -7 -11 -9 -11 -9 -1 0 7 -5 10 -12 6 -6 -4 -8 -3 -4 4 3
5 1 12 -6 14 -7 3 -5 7 6 11 10 4 15 3 11 -3 -4 -6 1 -7 11 -3 15 5 15 7 0 15
-9 5 -14 13 -11 17 2 5 -1 14 -8 20 -10 8 -14 7 -14 -4 0 -8 3 -12 7 -10 4 2
7 -2 7 -9 0 -7 -5 -13 -12 -13 -16 0 -13 50 5 73 14 18 14 18 -2 5 -13 -9 -18
-10 -18 -2 0 7 -5 9 -12 5 -8 -5 -9 -2 -5 10 4 10 7 20 7 22 0 3 6 2 13 -2 6
-4 8 -3 4 1 -9 11 -39 16 -33 6 3 -4 0 -13 -5 -21 -9 -13 -10 -13 -6 0 2 8 -3
24 -12 35 -14 17 -14 18 0 7 9 -6 19 -9 22 -5 9 8 -30 36 -41 29 -5 -3 -9 1
-9 8 0 8 7 12 15 9 12 -5 12 -2 3 15 -7 13 -17 19 -26 16 -23 -9 -18 4 6 17
17 9 20 8 14 -2 -6 -8 -4 -10 5 -4 8 5 11 4 6 -3 -3 -6 -3 -13 2 -16 4 -2 8 6
8 19 0 14 -2 22 -5 20 -2 -3 -11 1 -19 8 -9 6 -13 7 -9 1 3 -6 0 -11 -7 -11
-7 0 -13 5 -13 11 1 54 -4 76 -19 76 -8 0 -12 5 -9 10 4 6 11 7 17 4 7 -4 8
-2 4 5 -4 6 -11 9 -16 6 -15 -9 -22 35 -9 53 11 14 11 15 -1 5 -22 -20 -30
-16 -30 15 0 21 -2 24 -10 12 -7 -11 -9 -6 -6 18 3 26 0 32 -11 28 -10 -4 -13
0 -11 12 2 9 11 16 19 14 8 -1 3 7 -10 18 -13 11 -20 20 -16 20 4 0 2 6 -4 13
-6 8 -9 16 -6 19 3 2 -2 5 -10 5 -12 0 -12 -3 -2 -16 8 -10 8 -13 0 -8 -6 4
-13 4 -16 0 -2 -5 -3 -3 -1 3 1 6 -3 17 -9 24 -9 9 -9 11 -1 7 8 -5 11 2 10
17 0 13 -3 23 -6 21 -3 -2 -12 0 -20 6 -13 7 -12 9 3 9 9 0 17 5 17 11 0 5 -4
7 -10 4 -20 -12 -32 7 -13 21 16 13 15 13 -8 5 -27 -10 -39 -6 -39 11 0 5 10
7 23 4 12 -3 16 -3 9 0 -6 3 -10 10 -7 15 4 5 -1 6 -9 3 -11 -4 -16 0 -16 10
0 9 5 16 12 16 6 0 4 6 -6 13 -9 7 -16 19 -14 27 2 8 -6 15 -17 17 -18 3 -18
2 -2 -5 18 -8 18 -9 1 -22 -10 -8 -15 -10 -11 -3 4 6 1 13 -5 16 -10 3 -10 7
0 19 10 13 9 17 -5 23 -10 5 -22 7 -27 6 -5 -1 -4 5 4 13 13 16 2 22 -15 9 -6
-5 -7 -4 -3 1 12 15 9 46 -4 46 -6 0 -8 3 -5 7 4 3 2 12 -4 20 -9 10 -8 13 0
13 7 0 1 11 -13 23 -18 17 -22 27 -15 34 8 8 7 13 -2 18 -7 5 -10 4 -5 -3 3
-6 1 -14 -5 -17 -7 -5 -3 -15 12 -31 19 -20 20 -24 6 -24 -9 0 -16 6 -14 13 1
6 -4 11 -10 10 -7 -2 -12 0 -12 5 3 20 -2 32 -13 26 -7 -4 -8 -3 -4 5 4 6 12
9 17 6 5 -4 9 -1 9 4 0 10 -13 15 -31 13 -3 -1 -6 5 -6 13 0 8 4 12 8 9 4 -2
11 0 14 6 4 6 3 10 -2 9 -21 -4 -33 2 -33 16 0 9 -6 12 -17 9 -14 -5 -15 -4
-4 4 12 9 12 14 -3 36 -9 15 -14 31 -11 36 3 5 1 11 -5 15 -6 4 -8 10 -6 14 3
4 -1 8 -9 8 -11 0 -12 -4 -4 -14 6 -7 8 -13 4 -13 -4 0 0 -10 8 -23 11 -17 12
-24 3 -24 -7 0 -13 5 -14 11 -3 31 -30 98 -31 77 -1 -8 -4 -11 -7 -8 -4 4 -1
14 7 24 12 15 12 16 -2 11 -9 -3 -22 -2 -30 3 -9 6 -10 9 -2 9 7 0 10 7 7 15
-4 8 -10 12 -15 9 -5 -3 -9 2 -9 11 0 9 -4 14 -8 11 -4 -2 -7 7 -7 22 1 33 -3
44 -16 37 -5 -4 -5 -15 2 -28 9 -20 9 -21 -4 -4 -8 10 -13 27 -10 37 3 12 0
20 -6 20 -7 0 -9 -4 -6 -10 3 -5 2 -10 -4 -10 -14 0 -19 22 -10 47 9 25 4 30
-26 28 -14 -2 -20 5 -21 21 -1 13 3 24 10 24 6 0 3 5 -7 11 -9 6 -15 15 -11
20 3 5 0 8 -8 7 -7 -2 -12 3 -10 10 1 8 -2 11 -8 7 -8 -5 -6 -13 4 -24 14 -15
14 -18 1 -18 -8 0 -13 3 -10 5 9 9 -17 32 -28 25 -6 -3 -7 -1 -3 5 4 7 1 12
-6 12 -7 1 -2 7 12 16 23 14 23 14 3 9 -16 -5 -23 -2 -23 8 0 10 7 14 23 11
20 -4 20 -4 2 4 -10 5 -29 8 -42 6 -19 -2 -21 1 -12 23 6 16 6 31 -1 41 -8 14
-9 13 -7 -7 1 -13 -4 -25 -11 -27 -7 -1 -8 0 -2 3 6 3 7 11 0 22 -5 10 -6 21
-2 25 3 4 -2 4 -13 0 -18 -7 -19 -6 -5 11 14 17 14 17 -6 7 -12 -6 -26 -7 -35
-1 -10 6 -10 9 -1 9 9 0 10 4 0 19 -6 11 -19 17 -27 14 -14 -4 -14 -4 -1 6 14
10 7 15 -13 12 -4 -1 -3 8 3 19 13 24 2 27 -15 4 -11 -15 -12 -15 -12 0 0 8 9
18 19 22 10 3 18 10 18 16 0 6 -6 6 -15 -2 -9 -7 -19 -10 -22 -6 -4 4 -1 11 7
16 8 6 10 10 4 10 -6 0 -17 -7 -24 -15 -14 -17 -30 -20 -30 -4 0 5 4 8 9 4 6
-3 15 3 20 14 12 21 -10 48 -29 36 -5 -3 -21 3 -35 13 -21 16 -22 21 -9 26 9
3 12 11 8 18 -5 8 -2 9 10 5 10 -4 15 -3 11 3 -4 6 -12 10 -18 9 -27 -3 -36 2
-32 19 2 12 -3 18 -17 19 -19 2 -19 1 -3 -11 15 -11 16 -14 4 -21 -8 -5 -11
-4 -6 0 4 5 -5 17 -20 28 -16 10 -20 17 -10 13 19 -6 21 2 7 24 -6 10 -10 11
-10 3 0 -7 -5 -13 -10 -13 -7 0 -8 6 -2 17 10 17 -6 43 -27 43 -6 0 -8 7 -5
15 4 9 -1 18 -12 22 -11 3 -22 11 -25 16 -4 5 -13 7 -20 5 -8 -3 0 -10 19 -19
18 -8 30 -19 27 -26 -2 -7 5 -17 15 -23 21 -11 27 -30 9 -30 -5 0 -8 4 -5 8 3
5 -6 15 -20 22 -14 8 -20 16 -14 20 6 4 -2 13 -17 20 -16 8 -30 16 -32 17 -2
1 2 9 9 18 13 15 2 21 -15 8 -6 -5 -7 -4 -3 1 13 17 9 29 -6 17 -11 -9 -13 -6
-9 16 3 24 2 25 -6 8 l-10 -20 -1 20 c-2 11 -1 24 0 30 1 5 -2 7 -6 3 -4 -5
-14 1 -22 13 -8 11 -20 18 -28 15 -9 -3 -11 0 -7 12 3 9 3 14 -2 10 -4 -4 -15
7 -24 24 -11 22 -24 32 -40 33 -14 1 -27 7 -29 14 -2 6 -9 8 -14 5 -7 -5 -8
-2 -4 5 6 9 12 9 25 -3 15 -14 17 -13 18 7 0 12 -1 16 -4 10 -3 -10 -10 -9
-27 2 -12 8 -26 12 -31 8 -4 -5 -6 -1 -2 9 7 20 -27 53 -44 42 -7 -4 -10 -3
-6 4 9 13 -2 42 -15 42 -7 0 -6 -5 1 -13 8 -10 7 -14 -2 -14 -13 0 -17 11 -18
52 0 16 -2 17 -9 5 -7 -11 -10 -11 -10 -2 0 7 -4 10 -10 7 -5 -3 -10 1 -10 9
0 9 -4 16 -10 16 -5 0 -7 -7 -3 -16 5 -14 3 -13 -15 2 -25 21 -27 25 -9 18 8
-3 13 4 14 18 0 13 -1 17 -4 11 -3 -7 -11 -13 -19 -13 -8 0 -14 -6 -14 -12 0
-9 -3 -9 -9 1 -5 8 -8 24 -6 37 1 15 -2 21 -11 17 -8 -3 -11 -10 -7 -16 3 -6
-4 -3 -17 6 -31 22 -35 46 -6 41 20 -4 20 -4 1 4 -11 5 -26 7 -32 5 -7 -3 -13
0 -13 6 0 6 5 11 10 11 6 0 10 5 10 11 0 8 -4 8 -15 -1 -11 -9 -18 -9 -35 3
-11 7 -17 17 -13 20 3 4 1 7 -6 7 -7 0 -10 4 -6 9 3 5 1 12 -4 15 -5 4 -13 1
-17 -5 -5 -8 -3 -9 7 -4 8 5 10 4 6 0 -12 -14 -37 -15 -34 -2 1 7 -3 11 -8 10
-15 -2 -17 40 -2 50 8 5 5 7 -8 5 -12 -2 -19 2 -17 10 1 6 -2 12 -8 12 -13 0
-13 -13 0 -26 7 -7 6 -11 -4 -11 -8 0 -13 4 -10 9 3 4 -2 8 -12 8 -14 0 -14 3
-4 15 7 9 10 18 6 22 -3 3 -6 1 -6 -6 0 -7 -5 -9 -10 -6 -8 5 -7 12 2 23 8 11
4 10 -11 -3 -17 -14 -25 -16 -28 -7 -3 6 -10 9 -15 6 -7 -4 -8 -2 -4 5 6 9 11
9 22 0 10 -8 14 -8 14 0 0 6 -5 11 -11 11 -5 0 -7 5 -3 11 4 7 -1 7 -16 -1
-20 -11 -21 -10 -15 12 5 20 4 20 -5 6 -6 -10 -16 -18 -23 -18 -8 0 -7 4 2 9
12 8 12 12 2 25 -9 11 -19 13 -37 6 -19 -8 -26 -6 -30 5 -4 8 -10 12 -15 9 -5
-3 -9 -2 -8 3 1 4 1 19 0 33 -1 19 -3 22 -10 10 -6 -8 -7 -18 -4 -24 3 -5 1
-6 -5 -2 -7 4 -8 15 -2 30 6 17 5 23 -5 23 -8 0 -12 -4 -9 -8 2 -4 -5 -7 -16
-6 -13 1 -16 5 -10 11 6 6 10 15 10 21 0 5 -5 3 -10 -5 -6 -10 -10 -11 -10 -2
0 6 -4 12 -10 12 -5 0 -7 -6 -4 -14 3 -8 0 -17 -7 -22 -9 -5 -10 -2 -6 10 5
13 1 19 -13 23 -17 5 -25 21 -21 45 0 4 -7 4 -16 1 -11 -4 -13 -8 -5 -11 7 -2
12 -8 12 -14 0 -6 -8 -4 -17 4 -10 9 -25 18 -33 22 -8 3 -5 4 7 2 13 -2 27 3
35 13 10 13 10 14 -1 4 -15 -13 -44 -6 -35 8 3 5 0 9 -5 9 -6 0 -11 -4 -11
-10 0 -5 -5 -10 -11 -10 -5 0 -8 4 -4 9 3 5 -2 17 -11 25 -10 11 -11 16 -3 16
7 0 9 3 6 6 -4 4 -12 2 -19 -3 -15 -11 -62 9 -50 22 4 4 -1 5 -10 2 -20 -7
-25 9 -5 16 9 4 9 6 0 6 -6 1 -18 -8 -26 -19 -14 -20 -15 -20 -21 -3 -4 10 -7
20 -7 23 -1 11 -22 30 -33 30 -6 0 -4 -5 4 -10 20 -13 4 -13 -21 1 -11 5 -24
21 -29 35 -6 14 -14 22 -20 19 -5 -3 -18 -1 -29 4 -14 8 -21 8 -24 -2 -4 -9
-6 -9 -6 0 -1 6 4 15 9 18 13 8 13 25 -1 25 -5 0 -8 -4 -5 -9 3 -5 -5 -11 -19
-13 -13 -3 -22 -2 -20 2 7 11 -23 33 -35 25 -5 -3 -10 -1 -10 5 0 6 -4 9 -9 5
-6 -3 -15 4 -21 15 -6 11 -15 18 -21 15 -5 -4 -9 -1 -9 4 0 6 -6 10 -12 9 -7
-2 -11 4 -10 12 2 8 0 12 -4 7 -4 -4 -16 0 -26 10 -10 9 -21 13 -25 10 -3 -4
-1 -7 5 -7 6 0 9 -7 6 -15 -5 -11 -9 -12 -19 -2 -7 7 -10 17 -7 22 3 6 -2 4
-11 -4 -11 -9 -17 -10 -17 -2 0 6 -5 11 -11 11 -5 0 -7 -4 -4 -10 3 -5 0 -7
-9 -4 -8 3 -17 12 -20 20 -4 10 -2 13 7 8 8 -5 8 -2 -2 9 -7 9 -17 14 -22 12
-4 -3 -12 3 -18 12 -6 11 -11 13 -11 5 0 -7 -5 -10 -12 -6 -7 4 -8 3 -4 -5 4
-6 13 -8 19 -5 7 4 8 3 4 -1 -9 -11 -37 -16 -36 -7 3 22 -3 30 -22 27 -18 -4
-19 -2 -7 12 11 14 10 15 -8 9 -14 -4 -26 -1 -34 9 -14 17 -30 20 -30 5 0 -6
5 -9 11 -8 6 2 13 -3 14 -10 2 -7 1 -8 -2 -2 -3 7 -10 7 -21 -2 -9 -8 -13 -8
-9 -2 8 14 -20 27 -35 17 -7 -3 -8 -1 -4 5 10 16 -6 15 -24 0 -8 -7 -5 -1 8
13 24 28 28 39 12 39 -5 0 -9 -3 -7 -7 2 -8 -6 -13 -24 -13 -5 0 -7 5 -3 12 4
7 3 8 -5 4 -8 -5 -9 -12 -2 -20 7 -8 6 -17 -1 -26 -8 -13 -9 -12 -5 2 7 22 -3
30 -19 17 -11 -9 -15 -7 -20 5 -4 9 -4 20 0 23 3 4 6 -1 6 -11 0 -9 4 -15 10
-11 13 8 0 37 -15 31 -7 -2 -19 1 -26 7 -8 8 -8 5 1 -7 13 -17 13 -19 0 -11
-8 5 -33 10 -55 12 -57 4 -66 6 -60 12 9 8 44 8 39 -1 -3 -4 0 -8 5 -8 6 0 11
6 11 13 0 8 4 7 11 -3 9 -13 10 -13 6 0 -2 8 -16 15 -33 16 -16 0 -39 6 -49
11 -20 11 -27 13 -46 13 -5 0 -8 4 -5 8 3 5 -1 9 -9 9 -13 0 -13 -3 0 -17 14
-15 13 -17 -5 -15 -11 1 -26 7 -33 15 -9 10 -9 11 1 6 6 -4 12 -2 12 4 0 7 -6
10 -14 7 -8 -3 -20 1 -26 9 -7 8 -17 14 -23 14 -6 0 -3 -6 8 -13 14 -11 15
-16 5 -22 -9 -5 -11 -4 -6 3 4 7 1 12 -6 13 -7 0 -21 2 -30 4 -10 2 -18 -2
-18 -8 0 -5 -3 -7 -6 -4 -4 4 -1 13 6 22 11 13 10 14 -6 8 -17 -6 -18 -5 -4
13 14 19 14 19 -8 0 -23 -20 -30 -32 -12 -21 6 3 10 1 10 -4 0 -14 -17 -14
-26 0 -4 8 -9 7 -16 -2 -8 -11 -9 -11 -5 2 3 9 1 22 -4 30 -7 11 -9 9 -9 -7 0
-11 -3 -24 -7 -27 -8 -8 -33 12 -33 26 0 6 6 2 14 -9 15 -19 15 -19 13 3 -1
14 -7 20 -19 18 -10 -2 -23 4 -29 13 -10 16 -10 16 -5 0 3 -10 1 -18 -4 -18
-6 0 -10 6 -11 13 -1 6 -5 1 -9 -13 l-8 -25 -1 25 c-1 20 -3 22 -11 10 -8 -13
-10 -13 -10 2 0 9 -4 19 -9 22 -5 4 -7 -4 -4 -16 3 -17 2 -19 -5 -10 -5 8 -12
13 -16 13 -20 -3 -26 0 -21 12 4 6 -3 1 -16 -13 -20 -23 -21 -23 -15 -4 4 14
2 23 -7 27 -9 3 -14 -1 -13 -10 0 -9 -6 -18 -14 -20 -12 -4 -12 -3 -1 5 10 7
10 11 1 17 -6 4 -18 -1 -26 -11 -8 -11 -13 -14 -12 -9 3 8 -6 17 -14 14 -21
-6 -37 -5 -32 2 7 12 -10 11 -22 -1 -8 -8 -15 -6 -24 5 -7 8 -19 15 -27 15 -8
0 -12 4 -8 9 3 5 0 13 -6 17 -8 4 -9 3 -5 -4 5 -8 -1 -11 -18 -10 -15 1 -26 6
-26 10 0 4 -5 8 -11 8 -8 0 -8 -4 0 -14 9 -11 9 -16 0 -22 -7 -4 -9 -3 -6 3 4
6 -3 13 -14 16 -14 4 -18 10 -13 19 6 11 5 11 -8 0 -11 -9 -18 -10 -23 -2 -4
7 -12 7 -26 -1 -12 -6 -18 -13 -15 -16 3 -3 13 0 22 8 16 13 16 12 4 -7 -11
-18 -17 -20 -31 -11 -13 8 -15 15 -8 23 7 8 6 15 -2 20 -7 4 -9 3 -5 -4 3 -6
2 -13 -3 -16 -5 -4 -12 -2 -15 3 -3 5 -16 7 -28 3 -12 -3 -19 -1 -15 5 7 11
-29 11 -39 0 -12 -12 -26 -8 -18 5 4 7 3 8 -5 4 -6 -4 -9 -13 -5 -19 3 -7 -2
-3 -11 8 -16 19 -16 19 -11 -8 4 -21 2 -26 -7 -19 -7 5 -22 8 -34 7 -13 -1
-30 7 -40 17 -18 20 -33 24 -33 7 0 -5 4 -8 9 -4 6 3 15 -5 21 -17 9 -19 9
-21 -2 -8 -15 17 -84 28 -74 12 3 -6 2 -13 -3 -17 -6 -3 -8 3 -6 15 2 11 -1
23 -7 26 -7 4 -8 2 -4 -4 4 -7 1 -12 -9 -12 -10 0 -14 5 -9 13 6 10 4 10 -7 0
-16 -16 -33 -17 -23 -2 4 8 0 8 -15 0 -11 -7 -21 -9 -21 -5 0 4 -12 -3 -27
-17 -15 -13 -22 -17 -15 -8 10 14 10 18 -3 23 -9 3 -13 2 -10 -4 3 -6 -1 -10
-10 -10 -9 0 -14 4 -10 9 3 5 1 13 -5 16 -6 4 -9 1 -8 -6z m448 -22 c0 -1 -13
-2 -29 -2 -23 -1 -28 2 -19 12 7 9 15 10 29 2 10 -5 19 -11 19 -12z m-363 -9
c-3 -8 -6 -5 -6 6 -1 11 2 17 5 13 3 -3 4 -12 1 -19z m44 5 c12 -16 12 -17 -2
-6 -9 7 -19 10 -22 6 -4 -3 -7 -1 -7 5 0 17 16 15 31 -5z m-128 -10 c-3 -7 -8
-13 -12 -13 -4 0 -8 6 -8 13 0 8 6 14 13 14 7 0 10 -6 7 -14z m597 1 c7 -7 2
-10 -13 -10 -13 0 -24 5 -24 12 0 14 23 12 37 -2z m-700 -30 c0 -1 -9 0 -20 3
-11 3 -20 12 -20 19 0 11 5 10 20 -3 11 -10 20 -18 20 -19z m765 26 c3 -5 1
-10 -4 -10 -6 0 -11 5 -11 10 0 6 2 10 4 10 3 0 8 -4 11 -10z m-934 -27 c13
-16 12 -17 -3 -4 -17 13 -22 21 -14 21 2 0 10 -8 17 -17z m-216 -32 c3 -5 2
-12 -3 -15 -5 -3 -9 1 -9 9 0 17 3 19 12 6z m-309 -62 c3 -6 1 -16 -5 -22 -9
-9 -10 -7 -5 7 5 13 4 17 -4 12 -7 -4 -12 -2 -12 3 0 14 17 14 26 0z m2163
-22 c0 -9 -2 -8 -6 1 -2 6 -10 9 -15 6 -7 -4 -8 -2 -4 5 9 13 26 5 25 -12z
m-2723 -149 c5 -7 3 -8 -6 -3 -10 6 -12 4 -6 -11 5 -14 4 -16 -5 -7 -6 6 -8
16 -5 22 9 14 13 14 22 -1z m3177 -5 c-3 -7 -6 -13 -8 -13 -2 0 -5 6 -8 13 -3
8 1 14 8 14 7 0 11 -6 8 -14z m137 -53 c9 -16 8 -18 -5 -14 -8 4 -15 12 -15
20 0 20 7 17 20 -6z m57 -42 c-3 -8 -6 -5 -6 6 -1 11 2 17 5 13 3 -3 4 -12 1
-19z m-3597 1 c0 -15 -18 -19 -23 -6 -3 8 1 14 9 14 8 0 14 -4 14 -8z m-376
-204 c-4 -8 -11 -15 -16 -15 -6 0 -4 -8 3 -17 13 -16 12 -17 -4 -4 -16 13 -16
15 -1 32 21 23 25 24 18 4z m4381 -12 c4 -11 0 -11 -18 -2 -31 16 -32 18 -8
16 11 -1 23 -7 26 -14z m-4585 -172 c0 -6 -4 -12 -8 -15 -5 -3 -9 1 -9 9 0 8
4 15 9 15 4 0 8 -4 8 -9z m-55 -21 c-3 -5 -1 -10 6 -10 7 0 10 -3 6 -6 -9 -9
-28 6 -22 17 4 5 8 9 11 9 3 0 2 -4 -1 -10z m4961 -12 c4 -7 3 -8 -4 -4 -7 4
-12 2 -12 -5 0 -7 -3 -10 -6 -6 -6 5 3 27 11 27 2 0 7 -5 11 -12z m84 -82 c0
-3 -4 -8 -10 -11 -5 -3 -10 -1 -10 4 0 6 5 11 10 11 6 0 10 -2 10 -4z m-5344
-288 c4 -6 3 -8 -4 -4 -6 3 -15 -2 -21 -11 -12 -20 -14 -13 -5 11 7 19 20 21
30 4z m5709 -26 c-3 -3 -11 0 -18 7 -9 10 -8 11 6 5 10 -3 15 -9 12 -12z m94
-66 c9 -11 9 -16 -1 -22 -7 -4 -10 -4 -6 1 4 4 3 14 -3 22 -6 7 -9 13 -6 13 2
0 10 -6 16 -14z m115 -127 c-3 -5 -11 -9 -17 -8 -9 0 -9 2 0 6 10 3 10 10 2
26 -10 21 -9 21 5 3 9 -10 13 -23 10 -27z m-30 23 c3 -5 -1 -9 -9 -9 -8 0 -12
4 -9 9 3 4 7 8 9 8 2 0 6 -4 9 -8z m100 -98 c3 -8 2 -12 -4 -9 -6 3 -10 10
-10 16 0 14 7 11 14 -7z m-6239 -194 c-17 -19 -41 -18 -29 1 3 5 9 7 14 4 5
-3 11 -1 15 5 3 5 9 10 12 10 3 0 -2 -9 -12 -20z m-15 -34 c0 -2 -7 -7 -16
-10 -8 -3 -12 -2 -9 4 6 10 25 14 25 6z m6585 -115 c3 -5 0 -13 -6 -17 -8 -5
-9 -3 -4 6 6 9 1 10 -16 5 -19 -5 -21 -4 -9 4 19 13 27 14 35 2z m-6691 -227
c3 -8 2 -12 -4 -9 -6 3 -10 10 -10 16 0 14 7 11 14 -7z m6961 -144 c-3 -5 -12
-10 -18 -10 -7 0 -6 4 3 10 19 12 23 12 15 0z m49 -65 c-7 -18 -20 -19 -30 -3
-4 6 -3 8 4 4 6 -3 13 -2 17 4 9 15 15 12 9 -5z m210 -371 c3 -8 2 -12 -4 -9
-6 3 -10 10 -10 16 0 14 7 11 14 -7z m100 -122 c2 -4 -5 -9 -17 -9 -17 -2 -19
0 -7 7 18 12 18 12 24 2z m11 -40 c-3 -3 -11 0 -18 7 -9 10 -8 11 6 5 10 -3
15 -9 12 -12z m32 -77 c0 -8 -4 -12 -9 -9 -5 3 -6 10 -3 15 9 13 12 11 12 -6z
m58 -55 c3 -5 1 -10 -4 -10 -6 0 -11 5 -11 10 0 6 2 10 4 10 3 0 8 -4 11 -10z
m59 -138 c3 -5 -1 -9 -9 -9 -8 0 -12 4 -9 9 3 4 7 8 9 8 2 0 6 -4 9 -8z
m-7819 -62 c-3 -5 -14 -10 -23 -10 -15 0 -15 2 -2 10 20 13 33 13 25 0z m7870
-10 c-3 -6 1 -13 9 -16 9 -3 13 -11 10 -16 -4 -6 -10 -5 -15 3 -7 11 -9 11 -9
-1 0 -13 -1 -13 -10 0 -5 9 -5 19 2 27 12 15 22 17 13 3z m-7880 -28 c-3 -3
-11 0 -18 7 -9 10 -8 11 6 5 10 -3 15 -9 12 -12z m-29 -41 c-4 -5 0 -11 6 -14
7 -3 3 -4 -9 -4 -17 1 -19 4 -11 14 12 15 22 18 14 4z m7981 -143 c-3 -8 -6
-5 -6 6 -1 11 2 17 5 13 3 -3 4 -12 1 -19z m-8035 5 c-6 -2 -9 -10 -6 -15 4
-7 2 -8 -5 -4 -13 9 -5 26 12 25 9 0 8 -2 -1 -6z m-67 -171 c-3 -3 -11 0 -18
7 -9 10 -8 11 6 5 10 -3 15 -9 12 -12z m-100 -172 c3 -5 1 -10 -4 -10 -6 0
-11 5 -11 10 0 6 2 10 4 10 3 0 8 -4 11 -10z m8411 -102 c3 -4 -1 -5 -10 -4
-8 1 -18 5 -22 8 -3 4 1 5 10 4 8 -1 18 -5 22 -8z m-8496 -53 c-7 -9 -15 -13
-17 -11 -7 7 7 26 19 26 6 0 6 -6 -2 -15z m8520 -25 c0 -5 -5 -10 -11 -10 -5
0 -7 5 -4 10 3 6 8 10 11 10 2 0 4 -4 4 -10z m39 -94 c11 -14 6 -15 -27 -7 -4
1 8 21 12 21 2 0 9 -6 15 -14z m-8759 -176 c0 -5 -5 -10 -11 -10 -5 0 -7 5 -4
10 3 6 8 10 11 10 2 0 4 -4 4 -10z m5 -30 c3 -5 1 -10 -4 -10 -6 0 -11 5 -11
10 0 6 2 10 4 10 3 0 8 -4 11 -10z m-254 -318 c-6 -11 -7 -22 -4 -26 3 -3 2
-6 -4 -6 -6 0 -14 7 -17 16 -3 8 -2 12 3 9 5 -3 13 4 16 16 4 11 9 18 12 16 2
-3 0 -14 -6 -25z m-101 -122 c0 -5 -5 -10 -11 -10 -5 0 -7 5 -4 10 3 6 8 10
11 10 2 0 4 -4 4 -10z m9275 -38 c-2 -3 0 -14 6 -24 9 -16 7 -24 -5 -36 -10
-11 -16 -12 -16 -4 0 7 5 12 10 12 16 0 12 18 -9 39 -19 19 -19 20 -1 18 11
-1 17 -3 15 -5z m-9359 -81 c0 -16 -3 -27 -6 -25 -7 8 -7 54 0 54 4 0 7 -13 6
-29z m-92 -99 c3 -5 -1 -9 -9 -9 -8 0 -15 4 -15 9 0 4 4 8 9 8 6 0 12 -4 15
-8z m-83 -85 c-10 -9 -11 -8 -5 6 3 10 9 15 12 12 3 -3 0 -11 -7 -18z m9576
17 c-3 -3 -12 -4 -19 -1 -8 3 -5 6 6 6 11 1 17 -2 13 -5z m-9814 -229 c-3 -9
-8 -14 -10 -11 -3 3 -2 9 2 15 9 16 15 13 8 -4z m-51 -42 c-6 -3 -10 -9 -7
-14 4 -5 -1 -6 -10 -3 -14 6 -14 8 2 19 10 8 20 11 23 8 3 -3 -1 -8 -8 -10z
m-72 -68 c0 -2 -6 -5 -13 -8 -8 -3 -14 1 -14 8 0 7 6 11 14 8 7 -3 13 -6 13
-8z m-95 -55 c-3 -5 -1 -10 6 -10 7 0 10 -3 6 -6 -9 -9 -28 6 -22 17 4 5 8 9
11 9 3 0 2 -4 -1 -10z m2 -33 c2 -3 -3 -7 -11 -10 -8 -3 -20 0 -26 8 -10 12
-8 13 10 10 13 -2 25 -6 27 -8z m-37 -22 c0 -1 -10 -10 -22 -21 -14 -12 -18
-13 -10 -3 6 9 10 18 7 21 -3 2 2 5 10 5 8 0 15 -1 15 -2z m10123 -40 c-3 -9
-8 -14 -10 -11 -3 3 -2 9 2 15 9 16 15 13 8 -4z m-10268 -54 c-9 -8 -36 -10
-30 -2 2 4 11 8 20 8 8 0 13 -3 10 -6z m-5 -27 c0 -8 -19 -13 -24 -6 -3 5 1 9
9 9 8 0 15 -2 15 -3z m10294 -66 c-3 -4 -11 -5 -19 -1 -21 7 -19 12 4 10 11 0
18 -5 15 -9z m13 -155 c0 -9 -4 -10 -14 -2 -7 6 -13 12 -13 14 0 1 6 2 13 2 8
0 14 -6 14 -14z m-10803 -61 c2 -4 -5 -9 -17 -9 -17 -2 -19 0 -7 7 18 12 18
12 24 2z m10811 -12 c-3 -5 -12 -10 -18 -10 -7 0 -6 4 3 10 19 12 23 12 15 0z
m-29 -68 c-17 -16 -18 -16 -5 5 7 12 15 20 18 17 3 -2 -3 -12 -13 -22z
m-11096 -156 c0 -2 -7 -6 -15 -10 -8 -3 -15 -1 -15 4 0 6 7 10 15 10 8 0 15
-2 15 -4z m11135 -76 c10 -11 14 -20 9 -20 -5 0 -15 9 -22 20 -7 11 -11 20 -9
20 2 0 12 -9 22 -20z m-11307 -55 c-3 -3 -9 2 -12 12 -6 14 -5 15 5 6 7 -7 10
-15 7 -18z m11307 -105 c10 -11 14 -20 9 -20 -5 0 -15 9 -22 20 -7 11 -11 20
-9 20 2 0 12 -9 22 -20z m4 -54 c-3 -3 -11 5 -18 17 -13 21 -12 21 5 5 10 -10
16 -20 13 -22z m-11551 -81 c-3 -3 -9 2 -12 12 -6 14 -5 15 5 6 7 -7 10 -15 7
-18z m11547 -25 c10 -11 14 -20 9 -20 -5 0 -15 9 -22 20 -7 11 -11 20 -9 20 2
0 12 -9 22 -20z m4 -54 c-3 -3 -11 5 -18 17 -13 21 -12 21 5 5 10 -10 16 -20
13 -22z m-11629 -10 c0 -3 -4 -8 -10 -11 -5 -3 -10 -1 -10 4 0 6 5 11 10 11 6
0 10 -2 10 -4z m-54 -48 c5 -7 3 -8 -6 -3 -10 6 -12 4 -7 -8 4 -12 2 -14 -11
-10 -14 5 -14 3 3 -18 15 -17 16 -20 3 -10 -15 11 -19 11 -24 -2 -3 -9 -13
-18 -22 -22 -11 -4 -9 2 7 19 14 15 21 26 16 26 -4 0 0 9 10 20 21 23 22 24
31 8z m11679 -48 c10 -11 14 -20 9 -20 -5 0 -15 9 -22 20 -7 11 -11 20 -9 20
2 0 12 -9 22 -20z m4 -54 c-3 -3 -11 5 -18 17 -13 21 -12 21 5 5 10 -10 16
-20 13 -22z m-11793 -103 c-1 -7 -6 -16 -10 -20 -4 -4 -6 -1 -4 7 2 10 -3 14
-16 12 -10 -2 -15 1 -12 7 9 14 44 9 42 -6z m11781 -299 c-3 -3 -12 -4 -19 -1
-8 3 -5 6 6 6 11 1 17 -2 13 -5z m-11943 -40 c3 -8 2 -12 -4 -9 -6 3 -10 10
-10 16 0 14 7 11 14 -7z m11932 -139 c-2 -14 -16 -22 -16 -10 0 3 0 10 0 15 0
6 4 10 9 10 5 0 8 -7 7 -15z m-11986 -130 c0 -25 -15 -24 -16 1 -1 13 2 21 7
18 5 -3 9 -11 9 -19z m-7 -142 c-3 -7 -10 -13 -16 -13 -8 0 -8 3 0 11 9 9 8
18 -4 38 l-15 26 20 -24 c11 -14 18 -31 15 -38z m11897 -397 c0 -3 -4 -8 -10
-11 -5 -3 -10 -1 -10 4 0 6 5 11 10 11 6 0 10 -2 10 -4z m-11853 -31 c0 -11
-4 -12 -14 -4 -7 6 -13 13 -13 15 0 2 6 4 13 4 8 0 14 -7 14 -15z m11818 -75
c3 -5 1 -10 -4 -10 -6 0 -11 5 -11 10 0 6 2 10 4 10 3 0 8 -4 11 -10z m-11755
-94 c0 -3 -4 -8 -10 -11 -5 -3 -10 -1 -10 4 0 6 5 11 10 11 6 0 10 -2 10 -4z
m11655 -106 c3 -5 1 -10 -4 -10 -6 0 -11 5 -11 10 0 6 2 10 4 10 3 0 8 -4 11
-10z m-11425 -416 c0 -8 -19 -13 -24 -6 -3 5 1 9 9 9 8 0 15 -2 15 -3z m11207
-49 c0 -8 -4 -12 -9 -9 -4 3 -8 9 -8 15 0 5 4 9 8 9 5 0 9 -7 9 -15z m-11202
-13 c-3 -3 -11 0 -18 7 -9 10 -8 11 6 5 10 -3 15 -9 12 -12z m11065 -177 c-12
-13 -29 -21 -36 -18 -18 7 -13 14 13 17 10 2 19 8 19 14 3 22 4 23 15 17 7 -5
3 -15 -11 -30z m-10900 -19 c0 -2 -7 -7 -16 -10 -8 -3 -12 -2 -9 4 6 10 25 14
25 6z m-5 -46 c16 -17 16 -20 3 -15 -9 4 -19 13 -22 21 -7 19 -2 18 19 -6z
m142 -155 c4 -4 2 -5 -4 -1 -7 4 -13 2 -13 -3 0 -6 5 -11 10 -11 6 0 10 -5 10
-11 0 -14 -18 -2 -30 21 -7 14 -6 18 5 16 8 -1 18 -6 22 -11z m10518 -35 c-8
-9 -13 -20 -10 -23 3 -4 -1 -2 -8 4 -9 9 -9 12 1 16 6 3 10 8 8 12 -3 4 1 8 9
8 13 0 13 -3 0 -17z m-10424 -63 c-6 -8 -7 -18 -3 -22 4 -5 1 -5 -6 -1 -10 6
-10 11 -1 22 6 8 14 14 16 14 3 0 0 -6 -6 -13z m10185 -126 c-4 -5 -1 -11 4
-13 6 -2 -3 -11 -19 -21 -22 -13 -32 -14 -37 -6 -4 7 -3 9 2 6 12 -7 38 8 40
23 2 17 4 20 10 20 3 0 3 -4 0 -9z m-9644 -285 c7 5 8 2 3 -6 -6 -10 -4 -12
10 -6 15 5 16 4 5 -9 -11 -14 -14 -13 -26 2 -7 10 -13 23 -13 28 0 6 3 4 6 -3
2 -6 10 -9 15 -6z m48 -38 c0 -9 4 -8 10 2 6 9 10 10 10 3 0 -19 -17 -24 -30
-8 -9 10 -9 15 -1 15 6 0 11 -6 11 -12z m8835 -138 c-3 -5 -12 -10 -18 -10 -7
0 -6 4 3 10 19 12 23 12 15 0z m-8458 -30 c-2 -24 -12 -26 -21 -4 -3 8 -2 12
4 9 6 -3 10 -1 10 4 0 6 2 11 4 11 3 0 4 -9 3 -20z m8243 -72 c0 -4 -4 -8 -9
-8 -6 0 -12 4 -15 8 -3 5 1 9 9 9 8 0 15 -4 15 -9z m-40 -20 c0 7 5 10 11 6 8
-4 7 -9 -2 -15 -21 -13 -29 -11 -29 9 0 14 2 15 10 2 7 -11 10 -11 10 -2z
m-33 -12 c0 -8 -6 -12 -15 -9 -11 5 -11 7 0 14 7 5 13 9 14 9 0 0 1 -6 1 -14z
m-7656 -73 c13 -17 13 -17 -6 -3 -11 8 -22 16 -24 17 -2 2 0 3 6 3 6 0 17 -8
24 -17z m7406 -8 c0 -8 -4 -12 -9 -9 -5 3 -6 10 -3 15 9 13 12 11 12 -6z
m-7312 -25 c-9 -14 8 -12 25 3 8 6 6 2 -5 -11 -13 -16 -21 -19 -26 -10 -7 12
-3 28 7 28 3 0 2 -4 -1 -10z m161 -47 c8 -11 13 -13 14 -5 0 14 20 17 20 3 0
-19 -29 -19 -46 0 -9 10 -14 19 -9 19 4 0 14 -8 21 -17z m6835 -40 c13 -16 12
-17 -3 -4 -10 7 -18 15 -18 17 0 8 8 3 21 -13z m-6554 -35 c-3 -8 -6 -5 -6 6
-1 11 2 17 5 13 3 -3 4 -12 1 -19z m126 -1 c3 -8 -1 -14 -8 -14 -7 0 -11 6 -8
14 3 7 6 13 8 13 2 0 5 -6 8 -13z m230 -51 c7 4 8 3 4 -1 -17 -19 -35 -13 -29
9 5 18 7 18 10 3 2 -10 8 -14 15 -11z m117 -16 c0 -5 -5 -10 -11 -10 -5 0 -7
5 -4 10 3 6 8 10 11 10 2 0 4 -4 4 -10z m5560 -4 c0 -2 -7 -7 -16 -10 -8 -3
-12 -2 -9 4 6 10 25 14 25 6z m36 -18 c4 -7 4 -10 -1 -6 -4 4 -14 3 -22 -3 -8
-8 -13 -8 -13 -1 0 6 6 13 13 15 6 3 13 6 14 6 1 1 5 -5 9 -11z m-5416 -8 c0
-5 -2 -10 -4 -10 -3 0 -8 5 -11 10 -3 6 -1 10 4 10 6 0 11 -4 11 -10z m27 -5
c0 -8 -4 -12 -9 -9 -5 3 -6 10 -3 15 9 13 12 11 12 -6z m133 -9 c0 -3 -4 -8
-10 -11 -5 -3 -10 -1 -10 4 0 6 5 11 10 11 6 0 10 -2 10 -4z m108 -21 c-3 -3
-9 2 -12 12 -6 14 -5 15 5 6 7 -7 10 -15 7 -18z m272 -24 c0 -6 -4 -12 -8 -15
-5 -3 -9 1 -9 9 0 8 4 15 9 15 4 0 8 -4 8 -9z m4395 -10 c3 -5 0 -13 -6 -17
-7 -4 -9 -3 -5 4 3 5 0 13 -6 15 -9 4 -10 6 -1 6 6 1 14 -3 18 -8z m-4115 -11
c0 -5 -2 -10 -4 -10 -3 0 -8 5 -11 10 -3 6 -1 10 4 10 6 0 11 -4 11 -10z
m3923 -13 c3 -8 -3 -13 -18 -13 -13 0 -21 4 -19 8 3 5 10 6 15 3 5 -4 9 -1 9
4 0 15 7 14 13 -2z m-3523 -5 c0 -5 -7 -9 -15 -9 -8 0 -12 4 -9 9 3 4 9 8 15
8 5 0 9 -4 9 -8z m360 -23 c15 -28 5 -23 -15 7 -9 15 -12 23 -6 20 6 -4 16
-16 21 -27z m2976 19 c3 -4 -1 -5 -10 -4 -8 1 -18 5 -22 8 -3 4 1 5 10 4 8 -1
18 -5 22 -8z m-28 -21 c9 3 14 3 11 -1 -4 -4 -15 -8 -26 -10 -14 -3 -19 2 -20
17 -2 19 -1 20 8 5 6 -11 16 -15 27 -11z m-2323 -5 c-3 -3 -11 0 -18 7 -9 10
-8 11 6 5 10 -3 15 -9 12 -12z m2208 -3 c-8 -8 -13 -7 -18 2 -5 8 -4 10 3 5 7
-4 12 -2 12 5 0 7 3 9 7 6 4 -4 2 -12 -4 -18z m-1600 -14 c-7 -21 -12 -19 -10
4 0 11 5 18 9 15 4 -3 5 -11 1 -19z m-433 9 c0 -8 -19 -13 -24 -6 -3 5 1 9 9
9 8 0 15 -2 15 -3z m80 -10 c0 -8 -5 -12 -10 -9 -6 4 -8 11 -5 16 9 14 15 11
15 -7z m74 8 c3 -5 -1 -9 -9 -9 -8 0 -12 4 -9 9 3 4 7 8 9 8 2 0 6 -4 9 -8z
m621 -24 c5 4 5 2 1 -5 -8 -14 -36 -6 -36 9 0 7 5 6 13 -1 8 -6 18 -7 22 -3z
m345 -5 c0 -3 -7 -3 -15 1 -8 3 -15 0 -15 -6 0 -6 -3 -9 -6 -5 -11 10 6 26 21
20 8 -3 15 -7 15 -10z m206 -8 c-3 -20 -16 -31 -16 -13 0 13 8 28 16 28 1 0 1
-7 0 -15z m54 5 c0 -5 -2 -10 -4 -10 -3 0 -8 5 -11 10 -3 6 -1 10 4 10 6 0 11
-4 11 -10z"/>
<path d="M7136 11425 c4 -8 8 -15 10 -15 2 0 4 7 4 15 0 8 -4 15 -10 15 -5 0
-7 -7 -4 -15z"/>
<path d="M7165 11430 c-3 -5 -5 -10 -3 -11 29 -7 36 -5 31 7 -6 16 -19 18 -28
4z"/>
<path d="M7585 11410 c6 -10 4 -12 -11 -6 -18 7 -18 6 1 -12 20 -20 46 -13 44
12 0 7 -2 6 -6 -1 -2 -7 -9 -13 -14 -13 -6 0 -8 4 -4 9 3 5 0 13 -6 17 -8 5
-9 3 -4 -6z"/>
<path d="M7632 11389 c2 -6 8 -10 13 -10 5 0 11 4 13 10 2 6 -4 11 -13 11 -9
0 -15 -5 -13 -11z"/>
<path d="M7680 11390 c-8 -5 -10 -10 -5 -10 6 0 17 5 25 10 8 5 11 10 5 10 -5
0 -17 -5 -25 -10z"/>
<path d="M6290 11351 c0 -7 -4 -9 -10 -6 -6 4 -7 -1 -3 -11 6 -15 7 -15 15 1
6 9 7 19 4 22 -3 4 -6 1 -6 -6z"/>
<path d="M6235 11340 c3 -5 8 -10 11 -10 2 0 4 5 4 10 0 6 -5 10 -11 10 -5 0
-7 -4 -4 -10z"/>
<path d="M6195 11330 c-3 -5 -5 -10 -3 -11 33 -8 38 -7 27 7 -14 17 -16 17
-24 4z"/>
<path d="M7975 11330 c3 -5 8 -10 11 -10 2 0 4 5 4 10 0 6 -5 10 -11 10 -5 0
-7 -4 -4 -10z"/>
<path d="M5950 11276 c0 -2 7 -7 16 -10 8 -3 12 -2 9 4 -6 10 -25 14 -25 6z"/>
<path d="M5870 11251 c0 -5 7 -12 16 -15 14 -5 15 -4 4 9 -14 17 -20 19 -20 6z"/>
<path d="M8470 11186 c0 -2 7 -7 16 -10 8 -3 12 -2 9 4 -6 10 -25 14 -25 6z"/>
<path d="M8615 11150 c3 -5 8 -10 11 -10 2 0 4 5 4 10 0 6 -5 10 -11 10 -5 0
-7 -4 -4 -10z"/>
<path d="M8707 11097 c-6 -15 27 -17 40 -2 5 4 2 5 -4 1 -7 -4 -13 -2 -13 3 0
15 -17 14 -23 -2z"/>
<path d="M8891 11014 c0 -11 3 -14 6 -6 3 7 2 16 -1 19 -3 4 -6 -2 -5 -13z"/>
<path d="M9081 10913 c-1 -16 16 -26 24 -13 4 6 11 7 17 4 7 -4 8 -2 4 5 -6 9
-11 9 -21 1 -10 -8 -14 -7 -18 2 -4 9 -6 9 -6 1z"/>
<path d="M4977 10889 c7 -7 15 -10 18 -7 3 3 -2 9 -12 12 -14 6 -15 5 -6 -5z"/>
<path d="M9150 10886 c7 -7 13 -7 20 0 6 6 3 10 -10 10 -13 0 -16 -4 -10 -10z"/>
<path d="M9161 10861 c-8 -5 -9 -11 -3 -15 5 -3 12 1 16 9 6 17 6 18 -13 6z"/>
<path d="M4813 10763 c1 -17 4 -19 14 -11 15 12 18 22 4 14 -5 -4 -11 0 -14 6
-3 7 -4 3 -4 -9z"/>
<path d="M9393 10730 c-2 -20 23 -35 32 -19 4 5 1 8 -6 7 -7 -2 -13 2 -14 9 0
20 -11 23 -12 3z"/>
<path d="M4735 10690 c4 -6 11 -8 16 -5 14 9 11 15 -7 15 -8 0 -12 -5 -9 -10z"/>
<path d="M9520 10633 c1 -29 50 -50 50 -22 0 6 -4 8 -9 4 -5 -3 -17 2 -25 11
-9 8 -16 12 -16 7z"/>
<path d="M4555 10559 c3 -9 -1 -24 -10 -33 -9 -9 -12 -16 -6 -16 18 0 34 41
21 54 -8 8 -10 7 -5 -5z"/>
<path d="M9766 10451 c-3 -5 1 -14 9 -21 10 -9 15 -9 15 -1 0 6 -5 11 -11 11
-5 0 -7 5 -4 10 3 6 4 10 1 10 -3 0 -7 -4 -10 -9z"/>
<path d="M9846 10391 c-4 -5 -2 -12 3 -15 5 -4 12 -2 15 3 4 5 2 12 -3 15 -5
4 -12 2 -15 -3z"/>
<path d="M9900 10316 c0 -9 30 -14 35 -6 4 6 -3 10 -14 10 -12 0 -21 -2 -21
-4z"/>
<path d="M9969 10298 c-8 -27 -5 -36 9 -30 10 4 12 7 4 10 -7 2 -10 8 -6 13 3
5 3 9 0 9 -3 0 -6 -1 -7 -2z"/>
<path d="M4075 9830 c-3 -5 -1 -10 4 -10 6 0 11 5 11 10 0 6 -2 10 -4 10 -3 0
-8 -4 -11 -10z"/>
<path d="M4012 9651 c4 -13 18 -16 19 -4 0 4 -5 9 -11 12 -7 2 -11 -2 -8 -8z"/>
<path d="M10600 9606 c6 -8 18 -12 26 -9 22 8 16 18 -12 21 -22 2 -24 0 -14
-12z"/>
<path d="M3980 9560 c-8 -5 -10 -10 -5 -10 6 0 17 5 25 10 8 5 11 10 5 10 -5
0 -17 -5 -25 -10z"/>
<path d="M10725 9490 c-16 -7 -17 -9 -3 -9 9 -1 20 4 23 9 7 11 7 11 -20 0z"/>
<path d="M10742 9448 c7 -13 11 -27 9 -33 -1 -5 4 -4 11 4 10 11 10 14 1 18
-7 3 -13 11 -13 19 0 8 -5 14 -10 14 -7 0 -6 -8 2 -22z"/>
<path d="M10875 9260 c3 -5 8 -10 11 -10 2 0 4 5 4 10 0 6 -5 10 -11 10 -5 0
-7 -4 -4 -10z"/>
<path d="M10947 9179 c7 -7 15 -10 18 -7 3 3 -2 9 -12 12 -14 6 -15 5 -6 -5z"/>
<path d="M3165 9171 c-3 -5 -16 -8 -29 -5 -15 2 -30 -4 -45 -20 -14 -15 -30
-22 -42 -19 -11 3 -19 0 -19 -6 0 -7 5 -9 12 -5 7 4 8 3 4 -5 -4 -6 -13 -8
-19 -4 -18 11 -38 12 -31 2 3 -5 9 -7 13 -5 4 3 8 -1 8 -9 0 -13 -4 -13 -24 1
-23 15 -24 15 -14 -5 15 -27 14 -36 -3 -22 -12 10 -14 9 -10 -7 6 -21 -20 -49
-31 -32 -3 5 -11 10 -17 10 -6 0 -1 -9 12 -20 13 -11 19 -20 14 -20 -6 0 -16
6 -23 13 -11 10 -13 9 -8 -5 5 -13 2 -15 -11 -11 -15 6 -15 5 -3 -10 12 -16
12 -17 -5 -10 -16 6 -17 5 -6 -9 11 -14 10 -16 -7 -11 -13 3 -21 1 -21 -6 0
-7 4 -10 9 -6 5 3 12 1 16 -4 3 -6 -3 -8 -15 -6 -22 4 -28 -10 -7 -18 6 -3 -3
-4 -20 -2 -21 2 -32 -1 -30 -8 1 -7 -3 -11 -10 -10 -12 2 -12 -21 0 -33 17
-18 5 -25 -14 -8 -15 14 -20 15 -17 4 2 -8 10 -20 18 -27 19 -16 5 -17 -23 -2
-21 12 -21 11 -4 -8 17 -19 14 -33 -7 -33 -6 0 -5 4 2 9 11 7 11 9 -1 14 -19
7 -17 -14 3 -39 14 -16 12 -16 -15 1 l-30 19 18 -21 c14 -16 15 -23 6 -29 -7
-4 -10 -3 -6 2 3 6 -4 16 -16 24 -20 12 -21 12 -8 -3 14 -17 11 -20 -24 -19
-17 1 -17 0 -2 -4 10 -3 14 -10 10 -17 -4 -8 -1 -7 9 1 11 9 18 10 23 2 3 -5
5 -10 3 -11 -2 0 -11 -2 -20 -4 -17 -3 -48 -28 -48 -39 0 -3 8 -3 18 1 11 3 9
0 -6 -11 -12 -10 -19 -23 -16 -29 5 -9 4 -9 -6 0 -13 12 -40 7 -40 -9 0 -5 5
-6 10 -3 6 3 10 -1 10 -9 0 -10 -6 -13 -15 -10 -11 4 -13 2 -9 -9 3 -8 0 -18
-6 -22 -6 -3 -9 -2 -8 3 2 6 -1 9 -7 9 -5 -1 -9 -7 -7 -14 2 -7 -1 -12 -7 -11
-5 2 -9 -1 -9 -6 0 -5 -13 -17 -29 -27 -15 -10 -23 -19 -17 -19 5 0 15 5 21
11 9 9 12 7 10 -8 -1 -14 -6 -19 -17 -15 -13 5 -13 3 -1 -11 12 -15 12 -17 -4
-11 -25 10 -49 -23 -33 -45 10 -13 10 -14 -2 -3 -20 17 -35 15 -20 -3 11 -13
10 -14 -6 -8 -16 6 -17 5 -6 -9 10 -13 10 -18 1 -24 -7 -4 -10 -3 -7 2 3 5 -1
16 -10 23 -14 13 -15 12 -9 -8 5 -19 2 -22 -14 -18 -10 3 -22 0 -26 -5 -3 -6
-2 -8 3 -5 6 3 16 2 24 -4 11 -6 8 -9 -12 -9 -16 0 -28 -5 -28 -11 0 -5 -5 -7
-12 -3 -6 4 -8 3 -5 -3 7 -11 -20 -28 -36 -24 -5 1 -6 -3 -2 -9 3 -6 11 -8 16
-5 5 4 9 -1 9 -9 0 -16 -18 -30 -39 -31 -8 0 -16 -7 -18 -15 -4 -13 -3 -13 5
-1 8 11 10 8 9 -12 l-2 -27 -17 23 -17 22 3 -27 c2 -19 -1 -25 -10 -21 -8 3
-11 10 -7 16 3 6 1 7 -6 3 -9 -6 -9 -11 -1 -21 9 -10 3 -12 -27 -9 -26 2 -33
0 -23 -6 8 -5 19 -6 25 -2 5 3 4 -1 -2 -10 -7 -8 -9 -19 -5 -23 4 -5 1 -5 -6
-1 -7 4 -9 13 -6 19 5 9 3 9 -6 0 -11 -10 -11 -15 1 -30 11 -14 9 -14 -10 2
-21 17 -24 18 -18 3 4 -12 1 -18 -8 -18 -8 0 -15 -5 -15 -11 0 -5 6 -7 13 -3
7 4 9 3 4 -2 -9 -9 -13 -10 -43 -13 -10 0 -14 -7 -11 -15 5 -11 0 -13 -24 -6
-18 5 -27 5 -24 -1 4 -5 2 -9 -4 -9 -5 0 -13 -9 -16 -20 -4 -11 -11 -18 -16
-15 -5 4 -17 1 -26 -5 -17 -11 -17 -11 0 -6 15 5 16 2 7 -14 -6 -11 -13 -20
-16 -20 -3 0 -3 4 1 9 3 6 -4 8 -17 5 -13 -3 -28 -6 -33 -6 -6 -1 -12 -9 -12
-19 -2 -16 0 -16 19 3 11 11 22 17 25 14 10 -10 -41 -45 -52 -36 -6 5 -17 4
-25 -2 -13 -8 -12 -9 2 -4 12 3 15 1 12 -9 -3 -8 -12 -11 -19 -8 -10 3 -13 -1
-10 -16 2 -12 -1 -21 -7 -21 -5 0 -8 7 -5 15 4 8 2 17 -3 20 -6 4 -11 -1 -11
-9 -3 -29 -4 -34 -11 -42 -4 -3 -6 3 -3 15 2 11 0 21 -6 21 -5 0 -10 -7 -10
-15 -1 -8 -2 -21 -3 -27 -1 -7 -10 -11 -21 -10 -17 3 -17 2 -4 -14 13 -16 12
-16 -8 -4 -12 8 -20 17 -17 21 2 4 -6 5 -18 1 -21 -5 -21 -5 -1 -13 12 -4 24
-13 29 -20 5 -8 3 -10 -7 -4 -7 5 -22 10 -31 10 -14 1 -15 -1 -6 -12 9 -11 7
-12 -15 -4 -18 7 -28 6 -36 -3 -6 -7 -8 -16 -4 -19 5 -6 -17 -11 -38 -9 -3 1
-6 -5 -6 -13 0 -12 5 -11 29 1 16 8 26 19 23 24 -3 5 -1 11 5 15 5 3 10 -1 10
-10 0 -9 -16 -25 -36 -37 -22 -13 -33 -26 -30 -35 4 -8 1 -11 -5 -8 -6 4 -8
13 -5 21 3 7 1 16 -4 19 -12 7 -23 -32 -14 -47 4 -7 -1 -5 -12 4 -12 10 -25
14 -33 9 -8 -5 -9 -11 -3 -15 6 -3 13 0 15 6 4 10 6 10 6 0 1 -14 -68 -59 -83
-54 -5 2 -6 -5 -2 -14 5 -14 4 -15 -9 -4 -12 10 -13 16 -3 29 12 14 11 14 -4
2 -13 -10 -15 -18 -8 -31 7 -13 6 -21 -2 -26 -6 -4 -8 -3 -4 4 10 16 -14 26
-27 12 -9 -10 -9 -11 3 -5 10 6 12 5 5 -3 -5 -6 -17 -12 -25 -14 -8 -2 -22
-10 -30 -19 -8 -9 -23 -15 -32 -13 -10 1 -21 -3 -25 -8 -3 -7 -1 -8 5 -4 7 4
12 3 12 -3 0 -6 8 -8 18 -5 13 5 14 4 3 -4 -9 -7 -23 -7 -38 -1 -31 11 -30 12
-30 -6 0 -11 7 -14 21 -9 17 4 18 3 6 -5 -8 -6 -23 -11 -33 -11 -22 0 -49 -24
-39 -36 4 -5 -1 -3 -10 5 -14 11 -19 9 -31 -16 -27 -51 -62 -76 -98 -69 l-31
6 22 -18 22 -18 -21 -1 c-14 -1 -19 2 -14 10 7 13 -37 -21 -49 -38 -4 -5 -6
-16 -3 -23 3 -7 -2 -15 -10 -19 -13 -4 -13 -8 -3 -22 11 -14 11 -14 -2 -5 -8
5 -21 9 -27 8 -7 -1 -20 -2 -29 -3 -8 0 -13 -5 -9 -11 3 -5 12 -7 20 -3 8 3
15 3 15 0 0 -14 -31 -14 -45 -1 -8 9 -15 11 -15 6 0 -5 3 -12 7 -16 13 -13 11
-33 -4 -33 -8 0 -12 6 -9 14 4 8 1 11 -5 7 -6 -3 -9 -17 -6 -30 2 -14 0 -21
-6 -17 -6 4 -8 0 -4 -11 4 -11 3 -15 -4 -11 -6 4 -8 13 -6 19 3 7 1 19 -4 27
-5 9 -7 2 -6 -22 3 -33 1 -37 -20 -34 -13 1 -30 -7 -40 -18 -10 -11 -13 -17
-6 -14 6 4 14 3 17 -2 3 -5 -3 -11 -14 -14 -15 -4 -18 -10 -13 -24 6 -16 5
-16 -10 -4 -15 12 -17 12 -11 -4 5 -13 4 -16 -4 -11 -7 4 -12 1 -12 -9 0 -9
-4 -13 -10 -10 -13 8 -13 -1 0 -26 13 -23 7 -25 -14 -3 -9 8 -16 10 -16 4 0
-6 -10 -15 -22 -20 -18 -7 -19 -9 -5 -9 9 -1 17 -6 17 -12 0 -5 6 -7 13 -3 9
6 9 5 0 -8 -7 -8 -9 -19 -5 -24 4 -4 -1 -2 -11 5 -19 15 -23 26 -5 15 7 -4 8
-3 4 5 -6 9 -12 9 -24 -1 -27 -20 -28 -22 -11 -16 9 4 21 -2 29 -15 12 -21 12
-21 -5 -7 -17 14 -18 13 -12 -4 6 -16 5 -17 -8 -6 -18 15 -20 -1 -2 -19 10
-10 9 -11 -4 -6 -10 4 -20 1 -24 -4 -3 -6 -10 -9 -14 -7 -4 3 -7 -6 -7 -20 0
-13 4 -24 8 -24 4 0 8 -8 7 -17 0 -11 -3 -13 -6 -5 -2 6 -12 12 -21 11 -11 0
-12 -2 -4 -6 20 -8 14 -22 -9 -18 -18 4 -19 2 -8 -13 21 -27 23 -28 15 -7 -5
15 -4 17 5 8 14 -14 2 -36 -17 -29 -19 7 -18 -4 4 -21 12 -11 13 -13 2 -10 -8
2 -22 -3 -30 -11 -13 -14 -12 -15 3 -9 15 6 17 3 12 -14 -5 -16 -4 -20 6 -15
8 4 5 1 -5 -8 -10 -8 -22 -13 -26 -11 -4 2 -7 -2 -7 -10 0 -10 4 -12 12 -5 7
6 11 3 12 -10 1 -12 -3 -17 -12 -14 -7 3 -16 0 -21 -7 -4 -8 -3 -10 4 -5 7 4
12 2 12 -4 0 -6 5 -8 10 -5 6 3 10 1 10 -4 0 -6 -4 -11 -10 -11 -17 0 -11 -28
8 -39 14 -8 14 -11 2 -12 -8 -1 -22 -1 -30 0 -8 1 -4 -6 10 -14 14 -9 17 -14
8 -11 -10 3 -20 0 -24 -6 -4 -6 -3 -8 3 -5 6 4 14 0 17 -9 3 -8 2 -12 -4 -9
-6 3 -10 1 -10 -4 0 -6 4 -11 10 -11 11 0 1 -32 -14 -43 -6 -4 1 -5 17 -3 15
3 25 1 22 -5 -4 -5 -12 -9 -18 -9 -7 0 -12 -16 -12 -39 0 -22 3 -37 6 -35 4 2
14 2 22 -1 20 -8 15 -57 -8 -65 -17 -6 -17 -7 -1 -13 9 -4 14 -12 11 -17 -4
-6 -3 -10 2 -9 20 3 34 -2 28 -11 -4 -6 -12 -7 -18 -3 -7 4 -7 1 1 -9 8 -10
20 -14 29 -11 12 5 14 3 7 -8 -13 -21 -14 -39 -2 -39 6 0 8 6 5 14 -4 10 0 12
15 8 11 -2 16 -8 11 -11 -18 -12 -19 -36 -2 -53 15 -14 18 -14 23 -2 3 8 1 12
-4 9 -6 -4 -7 2 -4 12 5 15 4 16 -5 3 -9 -13 -11 -13 -11 3 0 9 4 17 10 17 11
0 34 -40 23 -40 -4 0 3 -10 17 -21 14 -11 19 -18 13 -14 -9 4 -11 1 -7 -10 4
-10 13 -13 26 -9 14 4 18 2 14 -5 -11 -18 5 -13 21 7 13 15 13 15 3 -5 -10
-21 -8 -23 13 -23 12 0 29 6 37 13 8 6 6 2 -4 -10 -19 -23 -14 -29 23 -24 7 2
11 -2 7 -7 -3 -5 1 -9 9 -9 18 0 19 9 3 27 -11 12 -10 12 7 0 11 -8 22 -16 24
-17 2 -1 -1 -9 -7 -16 -9 -10 -8 -14 3 -14 8 0 12 4 9 9 -8 12 10 10 26 -4 8
-7 6 -3 -5 10 -14 17 -16 23 -5 20 8 -2 21 -12 28 -23 11 -17 12 -17 8 -2 -3
10 -2 15 4 12 18 -11 51 -14 45 -4 -4 5 -12 6 -18 3 -7 -4 -9 -3 -4 1 8 10 48
15 43 6 -2 -3 3 -13 12 -21 14 -13 15 -12 9 3 -3 9 -2 18 3 18 6 1 20 2 33 3
12 1 21 8 19 15 -2 8 7 5 23 -7 14 -11 33 -19 43 -17 9 2 20 4 25 4 14 2 7 18
-8 18 -8 0 -12 -4 -10 -8 6 -9 -22 -5 -30 4 -3 4 -2 5 2 2 3 -3 18 5 31 17 14
13 22 18 18 11 -8 -14 10 -27 19 -13 3 5 20 8 36 5 20 -4 28 -2 24 5 -5 9 31
16 58 11 5 -1 6 3 2 8 -3 6 -13 8 -23 5 -9 -3 -4 2 11 11 16 9 25 21 21 27 -4
7 -3 8 5 4 9 -6 9 -11 1 -21 -9 -11 -7 -14 9 -12 13 1 20 6 17 14 -3 7 0 12 7
10 7 -1 11 4 9 12 -3 12 0 12 12 1 19 -15 21 0 4 20 -7 8 -2 6 11 -5 14 -11
21 -14 16 -6 -6 11 -4 13 8 8 10 -3 17 -2 17 2 0 5 11 8 25 7 13 -2 22 1 19 6
-3 5 -11 7 -18 5 -7 -3 -13 5 -14 16 0 12 2 17 6 11 8 -12 42 -26 42 -18 0 3
-5 15 -11 27 -9 18 -9 20 2 10 19 -19 34 -16 18 4 -13 15 -12 15 8 5 31 -17
42 -14 18 4 -19 15 -19 15 8 9 17 -5 27 -3 27 4 0 6 -3 10 -7 9 -5 -2 -9 0
-10 5 -7 19 -1 19 21 -2 16 -15 26 -19 31 -12 3 7 3 10 -2 9 -4 -2 -8 2 -8 7
0 6 5 9 11 9 6 -1 10 11 8 27 -2 15 1 31 6 34 6 4 7 -1 3 -11 -5 -13 -3 -15 8
-9 11 7 11 5 -1 -11 -14 -18 -14 -18 3 -5 10 8 15 21 12 29 -5 13 -3 13 12 1
15 -12 16 -12 11 2 -4 9 2 20 13 28 11 6 17 17 13 23 -4 7 -3 8 4 4 9 -5 8
-13 -3 -30 -13 -20 -13 -23 0 -23 8 0 12 4 9 8 -6 10 25 59 37 59 5 0 5 -8 2
-17 -5 -14 -3 -13 14 3 11 10 18 23 15 28 -2 4 -8 3 -12 -4 -5 -9 -9 -9 -14
-1 -4 6 -3 11 3 11 6 0 9 6 7 13 -1 6 -1 9 1 4 3 -4 10 -4 15 -1 7 4 8 2 4 -4
-4 -7 -1 -12 7 -12 16 0 19 30 3 30 -6 0 -3 5 7 11 9 6 14 15 11 21 -4 7 -2 8
5 4 6 -4 9 -11 6 -16 -3 -4 4 -10 15 -13 17 -4 18 -2 9 15 -8 15 -8 19 1 13 7
-4 14 1 17 14 5 20 6 20 19 4 12 -17 13 -16 7 5 -3 12 -10 22 -16 22 -6 0 -7
3 -4 6 4 4 13 1 22 -6 12 -10 16 -9 21 3 3 9 14 14 27 12 20 -4 21 -3 5 9 -25
19 -22 29 5 15 l22 -12 -20 24 c-11 13 -13 18 -5 12 23 -18 53 -9 57 16 2 14
-1 20 -8 16 -6 -4 -8 -13 -5 -20 5 -14 -18 -14 -31 0 -4 4 -3 5 3 2 12 -7 29
20 25 38 -1 5 6 2 17 -8 18 -16 20 -16 43 10 13 14 19 23 12 19 -8 -4 -11 1
-10 13 1 19 2 19 21 3 18 -16 19 -16 7 6 -12 22 -11 23 7 18 23 -8 39 9 21 20
-8 5 -9 3 -4 -7 7 -11 5 -11 -11 1 -29 22 -30 23 -14 18 8 -3 23 1 32 9 13 11
21 12 37 3 12 -6 21 -7 21 -1 0 5 -6 11 -12 14 -7 2 -9 8 -5 13 4 4 18 2 30
-5 20 -13 21 -13 8 2 -12 15 -9 21 9 19 3 0 7 8 7 19 1 10 -3 19 -9 19 -6 0
-8 3 -5 6 4 4 13 1 21 -5 11 -9 16 -9 22 0 4 8 3 9 -4 5 -7 -4 -12 -2 -12 3 0
6 5 11 10 11 6 0 10 4 10 10 0 5 -8 7 -17 4 -14 -5 -15 -4 -4 4 8 6 20 8 27 5
9 -3 12 2 9 17 -3 16 -1 19 8 11 7 -6 18 -6 26 -1 8 4 21 6 30 2 9 -3 13 -2
10 2 -4 4 -17 9 -29 11 -12 2 -25 7 -29 11 -3 4 1 5 9 2 8 -2 27 9 42 26 27
29 32 40 29 59 -1 5 3 6 9 2 6 -3 8 -10 5 -15 -8 -13 20 -19 36 -8 11 8 11 9
-3 5 -10 -4 -18 1 -21 13 -6 25 2 31 24 19 11 -5 19 -6 18 -2 -3 19 2 27 10
14 6 -9 11 -10 15 -2 4 6 1 11 -6 11 -7 0 -2 7 10 16 21 14 33 52 12 39 -5 -3
-10 -1 -10 5 0 7 8 9 20 5 13 -4 22 -1 26 9 3 9 10 14 14 11 5 -3 11 -1 15 4
3 6 -3 8 -13 6 -10 -2 -25 1 -33 5 -11 7 -9 9 6 9 36 1 54 4 52 10 -1 3 3 6 8
6 6 0 9 -4 7 -8 -1 -5 2 -6 8 -2 8 5 8 11 1 19 -6 7 -7 17 -3 22 4 5 -2 2 -13
-7 -11 -9 -27 -19 -35 -23 -8 -4 -3 2 13 14 15 12 24 26 21 32 -4 6 1 6 14 -1
18 -10 20 -8 17 14 -2 20 0 23 12 14 11 -9 12 -9 8 4 -4 10 1 17 14 22 12 3
21 11 21 17 0 6 -6 5 -15 -2 -13 -11 -18 -11 -28 0 -9 10 -9 11 1 6 7 -4 19
-2 27 4 8 7 22 10 30 6 13 -5 13 -3 0 18 -13 20 -13 23 0 23 8 0 12 -4 9 -8
-2 -4 -1 -10 4 -13 5 -3 9 0 9 7 0 7 2 17 3 22 5 21 -1 36 -12 29 -6 -4 -8 -3
-5 4 4 5 16 8 27 5 11 -3 17 -10 13 -16 -4 -6 -1 -7 7 -2 10 6 8 12 -9 27 -26
20 -20 24 12 7 l22 -12 -20 23 c-19 23 -20 23 0 13 15 -9 22 -8 31 5 10 13 9
19 -5 29 -13 9 -13 11 -1 10 8 -2 20 -6 27 -10 13 -8 12 18 -2 30 -4 4 -5 2 0
-6 5 -10 4 -12 -4 -7 -17 11 -2 28 19 21 15 -5 17 -2 13 15 -4 15 -8 18 -13
10 -5 -8 -10 -8 -14 -2 -3 5 1 13 10 16 9 3 12 11 8 18 -5 9 -2 8 10 -1 15
-13 17 -12 12 13 -3 14 -1 24 3 22 4 -3 14 6 21 19 7 14 18 25 23 25 6 0 2 -9
-8 -20 -10 -11 -15 -20 -12 -20 4 0 16 9 27 20 11 11 16 20 11 20 -5 0 -9 14
-9 31 1 24 3 27 10 15 5 -9 7 -20 4 -24 -3 -5 1 -9 8 -9 8 0 12 13 11 34 -1
28 2 33 17 30 9 -3 23 2 30 12 12 14 11 15 -4 2 -13 -9 -18 -10 -18 -2 0 7 -4
10 -9 7 -11 -7 -8 21 4 31 4 4 5 2 1 -4 -4 -7 -2 -13 5 -13 7 0 9 9 6 23 -6
22 -6 22 10 2 15 -20 15 -19 8 4 -5 16 -4 21 4 17 7 -4 9 -1 5 8 -3 9 -12 12
-22 8 -14 -5 -15 -4 -2 10 13 14 16 14 26 0 7 -10 13 -11 18 -4 3 6 -4 18 -16
26 -26 19 -16 21 15 4 20 -10 21 -10 7 6 -18 23 -21 44 -8 53 6 3 9 2 5 -3 -3
-5 2 -18 10 -29 15 -19 15 -19 8 4 -6 18 -4 22 6 15 10 -6 10 -3 -1 11 -14 17
-13 18 3 12 15 -6 16 -4 6 15 -10 18 -9 20 7 14 14 -4 12 0 -6 14 -20 16 -21
19 -5 14 11 -4 17 -4 13 1 -11 12 11 35 28 28 8 -3 14 0 14 6 0 6 -3 10 -7 10
-21 -3 -23 2 -8 18 9 9 15 26 12 39 -3 17 0 21 15 19 10 -2 16 0 13 5 -3 4 0
10 7 12 7 3 5 7 -6 11 -10 4 -15 3 -11 -3 3 -6 1 -10 -4 -10 -16 0 -13 16 6
31 15 12 16 12 8 -1 -8 -13 -7 -13 8 -1 18 15 23 26 7 16 -5 -3 -10 -1 -10 5
0 6 -4 9 -9 5 -5 -3 -12 -1 -16 4 -3 6 3 8 14 6 20 -4 40 29 27 42 -3 4 -6 1
-6 -5 0 -7 -5 -12 -11 -12 -8 0 -8 4 0 14 7 8 22 12 34 9 20 -4 20 -3 -3 11
l-25 16 28 -4 c15 -3 27 0 27 6 0 5 -7 8 -15 4 -8 -3 -15 -1 -15 5 0 6 -5 7
-12 3 -6 -4 -8 -3 -4 4 3 6 19 9 34 6 20 -3 23 -2 12 6 -8 5 -11 10 -7 10 4 0
3 10 -4 21 -8 15 -8 19 0 15 6 -4 11 -1 11 8 0 8 8 17 18 19 16 4 16 5 0 6
-18 1 -14 31 4 31 5 0 6 -5 2 -12 -5 -7 -3 -8 6 -3 11 7 10 10 -1 19 -8 6 -15
18 -17 26 -3 10 3 9 20 -5 12 -11 18 -13 13 -5 -16 24 -12 83 5 87 12 4 12 3
2 -5 -11 -8 -11 -10 1 -15 10 -4 14 0 12 11 -1 9 3 23 9 31 9 12 7 12 -12 2
-13 -7 -26 -11 -28 -8 -2 2 7 10 21 17 14 7 25 17 25 22 0 5 -4 7 -9 3 -5 -3
-13 0 -17 6 -4 8 -3 9 4 5 7 -4 12 -1 12 8 0 9 6 16 13 16 9 0 8 3 -2 9 -20
13 -3 34 23 27 19 -5 20 -4 4 8 -19 14 -25 32 -8 21 6 -3 11 0 11 7 1 7 2 20
3 28 1 8 -3 21 -8 28 -5 7 -6 15 -2 19 3 3 6 0 6 -8 0 -11 2 -11 10 1 12 19
13 33 1 25 -6 -3 -9 3 -8 14 1 17 3 18 27 4 22 -13 23 -13 7 0 -18 15 -19 36
-2 50 6 5 0 5 -12 2 -23 -6 -32 8 -13 20 15 9 12 27 -2 20 -7 -4 -5 0 4 8 16
13 16 15 0 32 -9 10 -11 15 -4 11 9 -5 11 2 7 28 -2 20 0 36 4 36 5 0 8 -18 7
-41 -2 -35 0 -39 11 -24 7 11 9 24 4 34 -5 9 -6 22 -4 29 4 11 -9 17 -31 13
-5 -1 -4 4 3 12 9 12 9 16 -1 21 -7 3 -2 3 12 0 22 -4 23 -3 7 6 -13 9 -15 15
-8 24 8 10 5 18 -11 32 -12 10 -18 14 -15 7 4 -6 4 -14 -1 -17 -4 -2 -9 7 -10
20 -1 14 2 23 6 20 5 -3 9 1 9 9 0 7 -8 12 -19 10 -10 -2 -25 4 -35 13 -15 15
-16 15 -11 1 5 -13 2 -16 -13 -12 -10 3 -19 10 -19 15 0 5 4 7 9 4 5 -3 12 1
15 9 4 13 2 13 -14 5 -24 -13 -33 -13 -25 0 3 6 4 10 1 10 -3 0 -7 -4 -11 -9z
m-35 -15 c0 -2 -7 -7 -16 -10 -8 -3 -12 -2 -9 4 6 10 25 14 25 6z m48 -21 c-3
-3 -9 2 -12 12 -6 14 -5 15 5 6 7 -7 10 -15 7 -18z m-33 -5 c3 -6 -1 -7 -9 -4
-18 7 -21 14 -7 14 6 0 13 -4 16 -10z m117 -19 c-4 -10 -7 -11 -10 -3 -2 7 -9
9 -14 6 -6 -4 -8 -3 -5 3 10 16 36 11 29 -6z m43 -41 c3 -5 1 -10 -4 -10 -6 0
-11 5 -11 10 0 6 2 10 4 10 3 0 8 -4 11 -10z m-20 -20 c3 -5 1 -10 -4 -10 -6
0 -11 5 -11 10 0 6 2 10 4 10 3 0 8 -4 11 -10z m-436 -163 c0 -9 -2 -8 -6 1
-6 15 -23 6 -19 -11 1 -7 1 -9 -1 -4 -3 4 -10 4 -16 0 -7 -3 -4 3 7 15 19 22
37 21 35 -1z m435 -216 c-4 -3 -9 0 -11 7 -3 6 -10 9 -15 6 -7 -4 -8 -2 -4 5
6 9 11 9 22 0 8 -6 12 -15 8 -18z m-703 -128 c13 -16 12 -17 -3 -4 -17 13 -22
21 -14 21 2 0 10 -8 17 -17z m-63 -98 c-3 -3 -9 2 -12 12 -6 14 -5 15 5 6 7
-7 10 -15 7 -18z m-114 -116 c-3 -5 -10 -7 -15 -4 -5 4 -12 -1 -15 -9 -3 -9
-10 -13 -15 -10 -5 3 1 14 13 24 23 18 44 18 32 -1z m-144 -153 c0 -2 -7 -7
-16 -10 -8 -3 -12 -2 -9 4 6 10 25 14 25 6z m-175 -116 c-3 -5 -11 -10 -16
-10 -6 0 -7 5 -4 10 3 6 11 10 16 10 6 0 7 -4 4 -10z m-621 -448 c2 -4 -4 -8
-14 -8 -10 0 -16 4 -14 8 3 4 9 8 14 8 5 0 11 -4 14 -8z m-222 -134 c-8 -8 -9
-4 -5 13 4 13 8 18 11 10 2 -7 -1 -18 -6 -23z m1523 -28 c3 -5 1 -10 -4 -10
-6 0 -11 5 -11 10 0 6 2 10 4 10 3 0 8 -4 11 -10z m-1655 -83 c0 -7 -4 -6 -10
3 -8 13 -14 8 -12 -11 1 -3 -6 -6 -14 -6 -12 0 -11 4 2 18 17 19 34 17 34 -4z
m-236 -195 c3 -5 -1 -9 -9 -9 -8 0 -12 4 -9 9 3 4 7 8 9 8 2 0 6 -4 9 -8z
m1656 -44 c0 -4 -4 -8 -9 -8 -6 0 -12 4 -15 8 -3 5 1 9 9 9 8 0 15 -4 15 -9z
m-44 -53 c-23 -18 -36 -19 -36 -4 0 5 4 8 9 4 5 -3 12 -1 16 5 3 5 12 10 18
10 7 0 3 -7 -7 -15z m-1721 -45 c3 -5 -1 -10 -10 -10 -9 0 -13 5 -10 10 3 6 8
10 10 10 2 0 7 -4 10 -10z m-79 -134 c-1 -18 -4 -22 -14 -14 -9 8 -9 14 -1 24
16 19 17 18 15 -10z m1554 -80 c0 -2 -8 -10 -17 -17 -16 -13 -17 -12 -4 4 13
16 21 21 21 13z m-174 -152 c-5 -12 -2 -15 10 -10 14 5 15 4 4 -9 -10 -12 -15
-13 -21 -4 -7 12 -2 39 8 39 3 0 2 -7 -1 -16z m-1446 -248 c0 -3 -4 -8 -10
-11 -5 -3 -10 -1 -10 4 0 6 5 11 10 11 6 0 10 -2 10 -4z m22 -123 c-6 -2 -9
-10 -6 -15 4 -7 2 -8 -4 -4 -18 11 -14 26 6 25 10 0 12 -3 4 -6z m28 -23 c0
-5 -2 -10 -4 -10 -3 0 -8 5 -11 10 -3 6 -1 10 4 10 6 0 11 -4 11 -10z m101
-173 c-10 -9 -11 -8 -5 6 3 10 9 15 12 12 3 -3 0 -11 -7 -18z m524 -7 c-3 -5
-12 -10 -18 -10 -7 0 -6 4 3 10 19 12 23 12 15 0z m-95 -16 c0 -8 -19 -13 -24
-6 -3 5 1 9 9 9 8 0 15 -2 15 -3z"/>
<path d="M3057 9156 c-3 -8 -2 -18 3 -21 13 -8 20 9 11 24 -6 10 -10 9 -14 -3z"/>
<path d="M10985 9110 c-3 -6 1 -7 9 -4 18 7 21 14 7 14 -6 0 -13 -4 -16 -10z"/>
<path d="M3836 9100 c12 -17 12 -30 1 -47 -5 -8 -4 -13 2 -13 6 0 12 5 12 10
3 20 4 25 13 40 5 8 6 12 1 8 -4 -4 -15 -2 -24 5 -13 10 -14 10 -5 -3z"/>
<path d="M2930 9069 c0 -5 5 -7 10 -4 6 3 10 8 10 11 0 2 -4 4 -10 4 -5 0 -10
-5 -10 -11z"/>
<path d="M2947 9053 c-4 -3 -7 -11 -7 -17 0 -6 5 -5 12 2 6 6 9 14 7 17 -3 3
-9 2 -12 -2z"/>
<path d="M11051 9044 c0 -11 3 -14 6 -6 3 7 2 16 -1 19 -3 4 -6 -2 -5 -13z"/>
<path d="M11060 9016 c0 -2 7 -6 15 -10 8 -3 15 -1 15 4 0 6 -7 10 -15 10 -8
0 -15 -2 -15 -4z"/>
<path d="M11089 8973 c-13 -16 -12 -17 4 -4 9 7 17 15 17 17 0 8 -8 3 -21 -13z"/>
<path d="M3800 8959 c-22 -18 -22 -19 -3 -10 12 6 25 16 28 21 9 15 3 12 -25
-11z"/>
<path d="M3313 8850 c-11 -16 -10 -18 2 -14 8 4 15 12 15 20 0 19 -3 18 -17
-6z"/>
<path d="M3316 8723 c-6 -14 -5 -15 5 -6 7 7 10 15 7 18 -3 3 -9 -2 -12 -12z"/>
<path d="M2635 8670 c-3 -5 -1 -10 4 -10 6 0 11 5 11 10 0 6 -2 10 -4 10 -3 0
-8 -4 -11 -10z"/>
<path d="M3260 8616 c0 -2 7 -7 16 -10 8 -3 12 -2 9 4 -6 10 -25 14 -25 6z"/>
<path d="M11336 8588 c3 -5 10 -6 15 -3 13 9 11 12 -6 12 -8 0 -12 -4 -9 -9z"/>
<path d="M3266 8565 c4 -8 8 -15 10 -15 2 0 4 7 4 15 0 8 -4 15 -10 15 -5 0
-7 -7 -4 -15z"/>
<path d="M2476 8483 c-6 -14 -5 -15 5 -6 7 7 10 15 7 18 -3 3 -9 -2 -12 -12z"/>
<path d="M3190 8311 c0 -6 4 -13 10 -16 6 -3 7 1 4 9 -7 18 -14 21 -14 7z"/>
<path d="M2315 8280 c4 -6 11 -8 16 -5 14 9 11 15 -7 15 -8 0 -12 -5 -9 -10z"/>
<path d="M3530 8156 c0 -2 7 -7 16 -10 8 -3 12 -2 9 4 -6 10 -25 14 -25 6z"/>
<path d="M2119 8132 c9 -7 10 -11 2 -15 -7 -4 -8 -5 0 -4 15 3 13 21 -3 25
-10 3 -10 2 1 -6z"/>
<path d="M3466 8012 c-3 -5 1 -9 9 -9 8 0 15 4 15 9 0 4 -4 8 -9 8 -6 0 -12
-4 -15 -8z"/>
<path d="M3055 7990 c-3 -5 -1 -10 5 -10 6 0 8 -5 4 -12 -4 -7 -3 -8 4 -4 6 4
9 13 5 21 -6 18 -10 19 -18 5z"/>
<path d="M3457 7973 c-4 -3 -2 -14 3 -24 7 -11 6 -19 0 -22 -6 -3 -5 -4 1 -3
7 1 13 12 14 24 2 23 -8 36 -18 25z"/>
<path d="M1802 7908 c-16 -16 -15 -25 4 -32 13 -5 14 -4 6 7 -9 10 -8 17 0 25
7 7 10 12 7 12 -3 0 -10 -5 -17 -12z"/>
<path d="M11665 7891 c-6 -11 13 -26 22 -17 4 3 1 6 -6 6 -7 0 -9 5 -6 10 3 6
4 10 1 10 -3 0 -7 -4 -11 -9z"/>
<path d="M3393 7867 c-3 -7 -3 -9 2 -5 4 4 14 3 21 -3 8 -7 14 -7 19 1 3 5 5
10 3 11 -27 6 -39 5 -45 -4z"/>
<path d="M1518 7718 c10 -13 10 -17 0 -21 -7 -2 -11 -7 -8 -9 3 -3 19 3 35 14
22 14 25 18 10 16 -11 -1 -27 2 -35 7 -13 7 -13 6 -2 -7z"/>
<path d="M2845 7580 c-3 -5 -1 -10 4 -10 6 0 11 5 11 10 0 6 -2 10 -4 10 -3 0
-8 -4 -11 -10z"/>
<path d="M2827 7534 c3 -7 9 -14 14 -14 14 0 10 17 -5 23 -10 4 -13 1 -9 -9z"/>
<path d="M11810 7496 c0 -2 7 -9 15 -16 13 -11 14 -10 9 4 -5 14 -24 23 -24
12z"/>
<path d="M1174 7468 c6 -20 -10 -34 -17 -16 -3 8 -6 6 -6 -4 -1 -21 12 -23 27
-5 8 9 8 17 0 27 -8 12 -9 12 -4 -2z"/>
<path d="M1015 7330 c-8 -13 5 -13 25 0 13 8 13 10 -2 10 -9 0 -20 -4 -23 -10z"/>
<path d="M11880 7290 c0 -5 5 -10 10 -10 6 0 10 5 10 10 0 6 -4 10 -10 10 -5
0 -10 -4 -10 -10z"/>
<path d="M2946 7132 c-3 -5 1 -9 9 -9 8 0 15 4 15 9 0 4 -4 8 -9 8 -6 0 -12
-4 -15 -8z"/>
<path d="M11945 7051 c-3 -6 0 -11 7 -11 9 0 9 -3 -2 -10 -12 -7 -10 -9 7 -7
18 1 20 4 10 17 -6 8 -12 16 -13 18 -1 2 -5 -1 -9 -7z"/>
<path d="M2853 7015 c0 -8 4 -12 9 -9 5 3 6 10 3 15 -9 13 -12 11 -12 -6z"/>
<path d="M2385 6970 c-3 -5 -2 -10 4 -10 5 0 13 5 16 10 3 6 2 10 -4 10 -5 0
-13 -4 -16 -10z"/>
<path d="M2360 6940 c-8 -5 -12 -11 -10 -14 3 -2 14 2 24 10 22 15 10 19 -14
4z"/>
<path d="M2290 6852 c0 -5 7 -9 15 -9 8 0 12 4 9 9 -3 4 -9 8 -15 8 -5 0 -9
-4 -9 -8z"/>
<path d="M2154 6738 c-4 -6 -3 -8 4 -4 5 3 12 1 14 -6 3 -8 6 -9 11 -1 4 6 0
13 -8 17 -8 3 -17 0 -21 -6z"/>
<path d="M12026 6628 c3 -5 10 -6 15 -3 13 9 11 12 -6 12 -8 0 -12 -4 -9 -9z"/>
<path d="M575 6619 c-4 -6 -5 -12 -2 -15 2 -3 7 2 10 11 7 17 1 20 -8 4z"/>
<path d="M570 6586 c0 -2 7 -7 16 -10 8 -3 12 -2 9 4 -6 10 -25 14 -25 6z"/>
<path d="M12040 6571 c0 -5 8 -15 18 -22 15 -12 16 -12 5 2 -7 9 -10 19 -6 22
3 4 1 7 -5 7 -7 0 -12 -4 -12 -9z"/>
<path d="M2376 6452 c-4 -7 -2 -12 4 -12 6 0 8 -5 4 -12 -5 -9 -2 -9 9 1 18
14 23 26 8 17 -5 -4 -11 -1 -13 6 -3 9 -6 9 -12 0z"/>
<path d="M599 6358 c-8 -27 -5 -36 9 -30 10 4 12 7 4 10 -7 2 -10 8 -6 13 3 5
3 9 0 9 -3 0 -6 -1 -7 -2z"/>
<path d="M12075 6311 c-6 -11 13 -26 22 -17 4 3 1 6 -6 6 -7 0 -9 5 -6 10 3 6
4 10 1 10 -3 0 -7 -4 -11 -9z"/>
<path d="M2114 6211 c0 -23 21 -28 32 -8 4 6 4 9 -1 5 -4 -4 -13 -1 -19 8 -10
13 -12 13 -12 -5z"/>
<path d="M1251 6043 c0 -11 3 -13 6 -5 2 6 10 9 15 6 7 -4 8 -2 4 4 -11 18
-26 14 -25 -5z"/>
<path d="M1135 6030 c-4 -6 -11 -8 -16 -5 -15 10 -10 -2 8 -16 14 -12 16 -12
8 0 -6 11 -4 13 8 8 11 -4 14 -2 10 9 -6 17 -10 17 -18 4z"/>
<path d="M1090 6021 c0 -6 4 -13 10 -16 6 -3 7 1 4 9 -7 18 -14 21 -14 7z"/>
<path d="M12131 5964 c0 -11 3 -14 6 -6 3 7 2 16 -1 19 -3 4 -6 -2 -5 -13z"/>
<path d="M1700 5900 c0 -5 7 -7 15 -4 8 4 15 8 15 10 0 2 -7 4 -15 4 -8 0 -15
-4 -15 -10z"/>
<path d="M1619 5861 c-28 -32 -36 -48 -13 -31 28 22 44 38 44 44 0 11 -15 4
-31 -13z"/>
<path d="M1556 5832 c-2 -4 -1 -14 3 -21 6 -10 10 -9 14 3 6 16 -8 32 -17 18z"/>
<path d="M1495 5790 c-3 -5 -3 -10 2 -10 4 0 2 -4 -6 -9 -7 -5 -9 -11 -4 -14
5 -3 14 3 21 13 7 11 8 21 2 25 -5 3 -11 1 -15 -5z"/>
<path d="M1376 5708 c3 -4 11 -5 19 -1 21 7 19 12 -4 10 -11 0 -18 -5 -15 -9z"/>
<path d="M12149 5498 c-8 -26 -3 -37 20 -48 l26 -12 -22 22 c-27 24 -29 35 -7
26 8 -3 12 -2 9 4 -5 9 -24 14 -26 8z"/>
<path d="M12161 5384 c-1 -5 5 -18 12 -28 12 -16 13 -16 13 3 0 11 -3 18 -7
15 -4 -2 -10 2 -12 8 -3 7 -6 8 -6 2z"/>
<path d="M860 5340 c-8 -5 -12 -12 -9 -15 4 -3 12 1 19 10 14 17 11 19 -10 5z"/>
<path d="M12160 5293 c0 -6 8 -17 18 -24 16 -13 16 -13 2 6 -8 11 -16 22 -17
24 -2 2 -3 0 -3 -6z"/>
<path d="M12170 5240 c6 -11 13 -20 16 -20 2 0 0 9 -6 20 -6 11 -13 20 -16 20
-2 0 0 -9 6 -20z"/>
<path d="M12170 5200 c6 -11 13 -20 16 -20 2 0 0 9 -6 20 -6 11 -13 20 -16 20
-2 0 0 -9 6 -20z"/>
<path d="M606 5132 c-3 -5 1 -9 9 -9 8 0 12 4 9 9 -3 4 -7 8 -9 8 -2 0 -6 -4
-9 -8z"/>
<path d="M613 5093 c0 -9 4 -10 14 -2 7 6 13 12 13 14 0 1 -6 2 -13 2 -8 0
-14 -6 -14 -14z"/>
<path d="M12170 5080 c6 -11 13 -20 16 -20 2 0 0 9 -6 20 -6 11 -13 20 -16 20
-2 0 0 -9 6 -20z"/>
<path d="M12170 5040 c6 -11 13 -20 16 -20 2 0 0 9 -6 20 -6 11 -13 20 -16 20
-2 0 0 -9 6 -20z"/>
<path d="M12170 4920 c6 -11 13 -20 16 -20 2 0 0 9 -6 20 -6 11 -13 20 -16 20
-2 0 0 -9 6 -20z"/>
<path d="M12170 4880 c6 -11 13 -20 16 -20 2 0 0 9 -6 20 -6 11 -13 20 -16 20
-2 0 0 -9 6 -20z"/>
<path d="M12170 4760 c6 -11 13 -20 16 -20 2 0 0 9 -6 20 -6 11 -13 20 -16 20
-2 0 0 -9 6 -20z"/>
<path d="M12147 4519 c7 -7 15 -10 18 -7 3 3 -2 9 -12 12 -14 6 -15 5 -6 -5z"/>
<path d="M12127 4303 c-4 -3 -7 -11 -7 -17 0 -6 5 -5 12 2 6 6 9 14 7 17 -3 3
-9 2 -12 -2z"/>
<path d="M128 4163 c7 -3 16 -2 19 1 4 3 -2 6 -13 5 -11 0 -14 -3 -6 -6z"/>
<path d="M112 4051 c-11 -7 -11 -9 0 -14 9 -3 15 1 15 9 0 8 -1 14 -1 14 -1 0
-7 -4 -14 -9z"/>
<path d="M12075 3800 c6 -8 10 -18 10 -22 0 -3 4 -10 9 -15 5 -5 6 -3 2 5 -4
6 -2 12 3 12 6 0 11 5 11 12 0 6 -3 8 -7 5 -3 -4 -13 -1 -21 6 -13 10 -14 9
-7 -3z"/>
<path d="M12095 3731 c-3 -5 -2 -12 3 -15 5 -3 9 1 9 9 0 17 -3 19 -12 6z"/>
<path d="M12069 3718 c-8 -24 -3 -55 8 -55 9 0 10 4 4 10 -7 7 -7 15 0 23 7 8
7 14 -1 19 -5 3 -10 5 -11 3z"/>
<path d="M12007 3479 c7 -7 15 -10 18 -7 3 3 -2 9 -12 12 -14 6 -15 5 -6 -5z"/>
<path d="M11990 3405 c-7 -8 -9 -15 -5 -15 4 0 2 -7 -5 -15 -9 -10 -9 -15 -1
-15 6 0 12 5 12 10 3 20 4 25 12 38 11 17 2 15 -13 -3z"/>
<path d="M232 3251 c4 -13 18 -16 19 -4 0 4 -5 9 -11 12 -7 2 -11 -2 -8 -8z"/>
<path d="M250 3150 c0 -5 5 -10 11 -10 5 0 7 5 4 10 -3 6 -8 10 -11 10 -2 0
-4 -4 -4 -10z"/>
<path d="M11819 3013 c-13 -17 -13 -17 6 -3 11 8 22 16 24 17 2 2 0 3 -6 3 -6
0 -17 -8 -24 -17z"/>
<path d="M395 2840 c-3 -6 1 -7 9 -4 18 7 21 14 7 14 -6 0 -13 -4 -16 -10z"/>
<path d="M11716 2768 c3 -5 10 -6 15 -3 13 9 11 12 -6 12 -8 0 -12 -4 -9 -9z"/>
<path d="M11650 2709 c0 -5 5 -7 10 -4 6 3 10 8 10 11 0 2 -4 4 -10 4 -5 0
-10 -5 -10 -11z"/>
<path d="M553 2595 c0 -8 7 -11 15 -7 10 3 13 1 8 -6 -3 -6 -1 -14 5 -18 7 -4
9 -3 5 4 -3 5 -1 12 5 14 6 2 0 9 -13 15 -19 9 -25 8 -25 -2z"/>
<path d="M660 2470 c-11 -7 -11 -10 -2 -10 8 0 10 -5 6 -12 -4 -7 -3 -9 1 -5
7 6 17 37 12 37 -1 0 -9 -5 -17 -10z"/>
<path d="M11427 2449 c7 -7 15 -10 18 -7 3 3 -2 9 -12 12 -14 6 -15 5 -6 -5z"/>
<path d="M786 2308 c3 -5 10 -6 15 -3 13 9 11 12 -6 12 -8 0 -12 -4 -9 -9z"/>
<path d="M11243 2288 c-4 -7 -9 -22 -10 -33 l-3 -20 12 20 c12 20 19 45 13 45
-2 0 -7 -6 -12 -12z"/>
<path d="M880 2230 c-9 -6 -10 -10 -3 -10 6 0 15 5 18 10 8 12 4 12 -15 0z"/>
<path d="M10950 2032 c0 -4 9 -8 19 -8 11 0 17 4 15 8 -3 4 -12 8 -20 8 -8 0
-14 -4 -14 -8z"/>
<path d="M1180 1990 c-9 -6 -10 -10 -3 -10 6 0 15 5 18 10 8 12 4 12 -15 0z"/>
<path d="M10920 1990 c-9 -6 -10 -10 -3 -10 6 0 15 5 18 10 8 12 4 12 -15 0z"/>
<path d="M1230 1971 c0 -6 6 -11 13 -11 8 0 7 -4 -3 -10 -9 -6 -10 -10 -3 -10
19 0 24 17 8 30 -10 9 -15 9 -15 1z"/>
<path d="M1335 1870 c-3 -6 1 -7 9 -4 18 7 21 14 7 14 -6 0 -13 -4 -16 -10z"/>
<path d="M10650 1829 c0 -5 5 -7 10 -4 6 3 10 8 10 11 0 2 -4 4 -10 4 -5 0
-10 -5 -10 -11z"/>
<path d="M10510 1770 c0 -5 5 -10 11 -10 5 0 7 5 4 10 -3 6 -8 10 -11 10 -2 0
-4 -4 -4 -10z"/>
<path d="M10326 1681 c-4 -5 -2 -12 4 -16 6 -4 7 -11 4 -17 -4 -6 -2 -8 4 -5
10 7 11 32 0 42 -3 4 -9 2 -12 -4z"/>
<path d="M1783 1655 c0 -8 4 -12 9 -9 5 3 6 10 3 15 -9 13 -12 11 -12 -6z"/>
<path d="M1987 1579 c7 -7 15 -10 18 -7 3 3 -2 9 -12 12 -14 6 -15 5 -6 -5z"/>
<path d="M1960 1576 c0 -2 8 -10 18 -17 15 -13 16 -12 3 4 -13 16 -21 21 -21
13z"/>
<path d="M2110 1540 c0 -5 5 -10 11 -10 5 0 7 5 4 10 -3 6 -8 10 -11 10 -2 0
-4 -4 -4 -10z"/>
<path d="M2110 1516 c0 -2 9 -6 20 -9 11 -3 18 -1 14 4 -5 9 -34 13 -34 5z"/>
<path d="M9928 1514 c-4 -3 -14 -7 -24 -8 -10 -2 -19 -8 -20 -15 -2 -7 0 -7 3
-1 3 8 9 7 19 -1 11 -9 15 -8 20 5 3 9 11 13 17 9 6 -3 7 -1 3 5 -8 14 -10 14
-18 6z"/>
<path d="M2396 1433 c-6 -14 -5 -15 5 -6 7 7 10 15 7 18 -3 3 -9 -2 -12 -12z"/>
<path d="M9747 1439 c7 -7 15 -10 18 -7 3 3 -2 9 -12 12 -14 6 -15 5 -6 -5z"/>
<path d="M2493 1406 c-3 -6 -2 -8 2 -3 5 4 19 0 32 -8 23 -15 23 -15 12 3 -13
21 -36 25 -46 8z"/>
<path d="M2670 1356 c0 -2 9 -6 20 -9 11 -3 18 -1 14 4 -5 9 -34 13 -34 5z"/>
<path d="M3066 1287 c3 -10 9 -15 12 -12 3 3 0 11 -7 18 -10 9 -11 8 -5 -6z"/>
<path d="M9106 1261 c-4 -5 -2 -12 3 -15 5 -4 12 -2 15 3 4 5 2 12 -3 15 -5 4
-12 2 -15 -3z"/>
<path d="M3156 1248 c3 -4 11 -5 19 -1 21 7 19 12 -4 10 -11 0 -18 -5 -15 -9z"/>
<path d="M3308 1243 c7 -3 16 -2 19 1 4 3 -2 6 -13 5 -11 0 -14 -3 -6 -6z"/>
<path d="M3926 1167 c3 -10 9 -15 12 -12 3 3 0 11 -7 18 -10 9 -11 8 -5 -6z"/>
<path d="M8595 1170 c-3 -5 -1 -10 4 -10 6 0 11 5 11 10 0 6 -2 10 -4 10 -3 0
-8 -4 -11 -10z"/>
<path d="M4149 1151 c6 -10 8 -20 6 -23 -3 -3 1 -5 9 -5 12 0 12 4 -1 24 -18
28 -28 31 -14 4z"/>
<path d="M4435 1139 c-10 -15 3 -25 16 -12 7 7 7 13 1 17 -6 3 -14 1 -17 -5z"/>
<path d="M8374 1139 c-3 -5 -10 -6 -16 -3 -6 4 -8 3 -5 -3 8 -12 56 -11 60 1
3 12 -32 16 -39 5z"/>
<path d="M4835 1120 c-4 -7 0 -19 9 -28 14 -15 15 -14 11 7 -6 30 -11 35 -20
21z"/>
<path d="M8190 1115 c-7 -8 -10 -18 -6 -22 3 -3 6 -1 6 5 0 19 20 14 21 -5 0
-10 3 -13 5 -6 3 7 1 19 -4 28 -8 15 -10 15 -22 0z"/>
<path d="M8335 1110 c3 -5 8 -10 11 -10 2 0 4 5 4 10 0 6 -5 10 -11 10 -5 0
-7 -4 -4 -10z"/>
<path d="M4947 1099 c7 -7 15 -10 18 -7 3 3 -2 9 -12 12 -14 6 -15 5 -6 -5z"/>
<path d="M7914 1078 c-4 -7 -4 -10 1 -6 4 4 15 2 24 -5 14 -11 14 -10 2 6 -16
20 -18 21 -27 5z"/>
<path d="M5515 1070 c3 -5 8 -10 11 -10 2 0 4 5 4 10 0 6 -5 10 -11 10 -5 0
-7 -4 -4 -10z"/>
<path d="M6190 1069 c0 -5 5 -7 12 -3 8 5 9 1 4 -12 -5 -14 -4 -16 5 -7 6 6 8
16 5 22 -9 14 -26 14 -26 0z"/>
<path d="M7535 1070 c-4 -6 -11 -7 -17 -4 -7 4 -8 2 -4 -4 7 -12 36 -5 36 9 0
12 -7 11 -15 -1z"/>
<path d="M7480 1066 c0 -2 8 -10 18 -17 15 -13 16 -12 3 4 -13 16 -21 21 -21
13z"/>
<path d="M7561 1054 c0 -11 3 -14 6 -6 3 7 2 16 -1 19 -3 4 -6 -2 -5 -13z"/>
<path d="M6871 1044 c0 -11 3 -14 6 -6 3 7 2 16 -1 19 -3 4 -6 -2 -5 -13z"/>
<path d="M7191 1044 c0 -11 3 -14 6 -6 3 7 2 16 -1 19 -3 4 -6 -2 -5 -13z"/>
<path d="M7379 1058 c-5 -18 -6 -38 -1 -34 7 8 12 36 6 36 -2 0 -4 -1 -5 -2z"/>
<path d="M7406 1052 c-3 -5 1 -9 9 -9 8 0 12 4 9 9 -3 4 -7 8 -9 8 -2 0 -6 -4
-9 -8z"/>
<path d="M7730 1056 c0 -2 7 -7 16 -10 8 -3 12 -2 9 4 -6 10 -25 14 -25 6z"/>
</g>
</svg>
